<svg width="973" height="277" viewBox="0 0 973 277" fill="none" xmlns="http://www.w3.org/2000/svg">
<rect width="973" height="277" fill="#1E1E1E"/>
<g clip-path="url(#clip0_0_1)">
<g filter="url(#filter0_d_0_1)">
<mask id="path-1-outside-1_0_1" maskUnits="userSpaceOnUse" x="70" y="44" width="834" height="164" fill="black">
<rect fill="white" x="70" y="44" width="834" height="164"/>
<path d="M207.704 118V189.25C196.537 192.917 185.954 195.583 175.954 197.25C165.954 198.917 157.537 199.75 150.704 199.75C128.037 199.75 110.287 193.833 97.4541 182C84.6208 170.167 78.2041 152 78.2041 127.5C78.2041 102.5 84.9541 83.8333 98.4541 71.5C111.954 59 130.954 52.75 155.454 52.75C168.287 52.75 183.704 54.6667 201.704 58.5C201.704 61.8333 201.371 66.8333 200.704 73.5C200.037 80 199.371 84.5833 198.704 87.25L189.704 87C178.704 86.6667 170.121 86.5 163.954 86.5C145.454 86.5 135.371 87.5833 133.704 89.75C131.037 92.9167 129.121 97.8333 127.954 104.5C126.954 111.167 126.454 117.583 126.454 123.75C126.454 134.917 127.704 143.583 130.204 149.75C132.704 155.917 136.537 160.25 141.704 162.75C146.871 165.25 153.871 166.5 162.704 166.5H163.704V118H207.704ZM330.256 197H292.456L285.656 168.2C285.389 167.133 284.923 165.333 284.256 162.8C283.723 160.133 283.056 158.2 282.256 157C281.456 155.667 280.323 154.8 278.856 154.4C275.123 154.533 269.656 154.6 262.456 154.6V197H226.456V84C242.589 82.8 257.656 82.2 271.656 82.2C284.323 82.2 294.589 83.2667 302.456 85.4C310.323 87.4 316.189 90.9333 320.056 96C324.056 100.933 326.056 107.733 326.056 116.4C326.056 124.533 324.189 130.933 320.456 135.6C316.723 140.133 310.723 142.867 302.456 143.8V145C307.123 145.4 310.989 146.933 314.056 149.6C317.256 152.133 319.389 155.4 320.456 159.4L330.256 197ZM262.456 132C263.656 132.133 265.989 132.2 269.456 132.2C279.723 132.2 285.723 131.333 287.456 129.6C289.056 128 289.856 124.267 289.856 118.4C289.856 112.933 288.389 109.2 285.456 107.2C282.656 105.2 277.989 104.2 271.456 104.2C269.989 104.2 266.989 104.333 262.456 104.6V132ZM342.672 83H378.672V197H342.672V83ZM438.917 83C454.517 83 467.25 84.4667 477.117 87.4C487.117 90.3333 494.85 95.8667 500.317 104C505.917 112.133 508.717 123.8 508.717 139C508.717 155.267 505.784 167.667 499.917 176.2C494.05 184.6 486.184 190.2 476.317 193C466.45 195.667 453.984 197 438.917 197H398.917V83H438.917ZM465.717 169.8C467.317 168.2 468.45 164.067 469.117 157.4C469.784 150.733 470.117 144.6 470.117 139C470.117 131.933 469.584 126.333 468.517 122.2C467.584 117.933 465.85 114.533 463.317 112C459.317 107.6 452.45 105.4 442.717 105.4C440.984 105.4 438.384 105.533 434.917 105.8V172.2C437.184 172.467 440.717 172.6 445.517 172.6C450.45 172.6 454.784 172.4 458.517 172C462.384 171.467 464.784 170.733 465.717 169.8ZM524.298 83H606.098V107.8H560.298V130.4H598.098V152.2H560.298V197H524.298V83ZM618.453 83H654.453V197H618.453V83ZM778.498 197H740.698L733.898 168.2C733.632 167.133 733.165 165.333 732.498 162.8C731.965 160.133 731.298 158.2 730.498 157C729.698 155.667 728.565 154.8 727.098 154.4C723.365 154.533 717.898 154.6 710.698 154.6V197H674.698V84C690.832 82.8 705.898 82.2 719.898 82.2C732.565 82.2 742.832 83.2667 750.698 85.4C758.565 87.4 764.432 90.9333 768.298 96C772.298 100.933 774.298 107.733 774.298 116.4C774.298 124.533 772.432 130.933 768.698 135.6C764.965 140.133 758.965 142.867 750.698 143.8V145C755.365 145.4 759.232 146.933 762.298 149.6C765.498 152.133 767.632 155.4 768.698 159.4L778.498 197ZM710.698 132C711.898 132.133 714.232 132.2 717.698 132.2C727.965 132.2 733.965 131.333 735.698 129.6C737.298 128 738.098 124.267 738.098 118.4C738.098 112.933 736.632 109.2 733.698 107.2C730.898 105.2 726.232 104.2 719.698 104.2C718.232 104.2 715.232 104.333 710.698 104.6V132ZM791.964 54.5H895.714V84.5H836.964V110.5H886.464V137.5H836.964V166.5H895.464V197H791.964V54.5Z"/>
</mask>
<path d="M207.704 118V189.25C196.537 192.917 185.954 195.583 175.954 197.25C165.954 198.917 157.537 199.75 150.704 199.75C128.037 199.75 110.287 193.833 97.4541 182C84.6208 170.167 78.2041 152 78.2041 127.5C78.2041 102.5 84.9541 83.8333 98.4541 71.5C111.954 59 130.954 52.75 155.454 52.75C168.287 52.75 183.704 54.6667 201.704 58.5C201.704 61.8333 201.371 66.8333 200.704 73.5C200.037 80 199.371 84.5833 198.704 87.25L189.704 87C178.704 86.6667 170.121 86.5 163.954 86.5C145.454 86.5 135.371 87.5833 133.704 89.75C131.037 92.9167 129.121 97.8333 127.954 104.5C126.954 111.167 126.454 117.583 126.454 123.75C126.454 134.917 127.704 143.583 130.204 149.75C132.704 155.917 136.537 160.25 141.704 162.75C146.871 165.25 153.871 166.5 162.704 166.5H163.704V118H207.704ZM330.256 197H292.456L285.656 168.2C285.389 167.133 284.923 165.333 284.256 162.8C283.723 160.133 283.056 158.2 282.256 157C281.456 155.667 280.323 154.8 278.856 154.4C275.123 154.533 269.656 154.6 262.456 154.6V197H226.456V84C242.589 82.8 257.656 82.2 271.656 82.2C284.323 82.2 294.589 83.2667 302.456 85.4C310.323 87.4 316.189 90.9333 320.056 96C324.056 100.933 326.056 107.733 326.056 116.4C326.056 124.533 324.189 130.933 320.456 135.6C316.723 140.133 310.723 142.867 302.456 143.8V145C307.123 145.4 310.989 146.933 314.056 149.6C317.256 152.133 319.389 155.4 320.456 159.4L330.256 197ZM262.456 132C263.656 132.133 265.989 132.2 269.456 132.2C279.723 132.2 285.723 131.333 287.456 129.6C289.056 128 289.856 124.267 289.856 118.4C289.856 112.933 288.389 109.2 285.456 107.2C282.656 105.2 277.989 104.2 271.456 104.2C269.989 104.2 266.989 104.333 262.456 104.6V132ZM342.672 83H378.672V197H342.672V83ZM438.917 83C454.517 83 467.25 84.4667 477.117 87.4C487.117 90.3333 494.85 95.8667 500.317 104C505.917 112.133 508.717 123.8 508.717 139C508.717 155.267 505.784 167.667 499.917 176.2C494.05 184.6 486.184 190.2 476.317 193C466.45 195.667 453.984 197 438.917 197H398.917V83H438.917ZM465.717 169.8C467.317 168.2 468.45 164.067 469.117 157.4C469.784 150.733 470.117 144.6 470.117 139C470.117 131.933 469.584 126.333 468.517 122.2C467.584 117.933 465.85 114.533 463.317 112C459.317 107.6 452.45 105.4 442.717 105.4C440.984 105.4 438.384 105.533 434.917 105.8V172.2C437.184 172.467 440.717 172.6 445.517 172.6C450.45 172.6 454.784 172.4 458.517 172C462.384 171.467 464.784 170.733 465.717 169.8ZM524.298 83H606.098V107.8H560.298V130.4H598.098V152.2H560.298V197H524.298V83ZM618.453 83H654.453V197H618.453V83ZM778.498 197H740.698L733.898 168.2C733.632 167.133 733.165 165.333 732.498 162.8C731.965 160.133 731.298 158.2 730.498 157C729.698 155.667 728.565 154.8 727.098 154.4C723.365 154.533 717.898 154.6 710.698 154.6V197H674.698V84C690.832 82.8 705.898 82.2 719.898 82.2C732.565 82.2 742.832 83.2667 750.698 85.4C758.565 87.4 764.432 90.9333 768.298 96C772.298 100.933 774.298 107.733 774.298 116.4C774.298 124.533 772.432 130.933 768.698 135.6C764.965 140.133 758.965 142.867 750.698 143.8V145C755.365 145.4 759.232 146.933 762.298 149.6C765.498 152.133 767.632 155.4 768.698 159.4L778.498 197ZM710.698 132C711.898 132.133 714.232 132.2 717.698 132.2C727.965 132.2 733.965 131.333 735.698 129.6C737.298 128 738.098 124.267 738.098 118.4C738.098 112.933 736.632 109.2 733.698 107.2C730.898 105.2 726.232 104.2 719.698 104.2C718.232 104.2 715.232 104.333 710.698 104.6V132ZM791.964 54.5H895.714V84.5H836.964V110.5H886.464V137.5H836.964V166.5H895.464V197H791.964V54.5Z" fill="url(#paint0_linear_0_1)"/>
<path d="M207.704 118H215.704L207.704 110V118ZM207.704 189.25L210.2 196.851L215.704 189.25H207.704ZM175.954 197.25L174.639 189.359L175.954 197.25ZM97.4541 182L92.031 187.881L92.031 187.881L97.4541 182ZM98.4541 71.5L103.85 77.4063L103.889 77.3701L98.4541 71.5ZM201.704 58.5H209.704L203.37 50.6755L201.704 58.5ZM200.704 73.5L208.662 74.3162L208.664 74.296L200.704 73.5ZM198.704 87.25L198.482 95.2469L206.465 89.1903L198.704 87.25ZM189.704 87L189.462 94.9963L189.482 94.9969L189.704 87ZM133.704 89.75L139.823 94.9031L140.045 94.6277L133.704 89.75ZM127.954 104.5L120.074 103.121L120.043 103.313L127.954 104.5ZM130.204 149.75L122.79 152.756L122.79 152.756L130.204 149.75ZM141.704 162.75L138.22 169.951L138.22 169.951L141.704 162.75ZM163.704 166.5V174.5L171.704 166.5H163.704ZM163.704 118V110L155.704 118H163.704ZM207.704 118H199.704V189.25H207.704H215.704V118H207.704ZM207.704 189.25L205.208 181.649C194.368 185.209 184.181 187.768 174.639 189.359L175.954 197.25L177.269 205.141C187.727 203.398 198.707 200.625 210.2 196.851L207.704 189.25ZM175.954 197.25L174.639 189.359C164.887 190.984 156.941 191.75 150.704 191.75V199.75V207.75C158.134 207.75 167.021 206.849 177.269 205.141L175.954 197.25ZM150.704 199.75V191.75C129.429 191.75 113.834 186.222 102.877 176.119L97.4541 182L92.031 187.881C106.741 201.445 126.646 207.75 150.704 207.75V199.75ZM97.4541 182L102.877 176.119C92.2618 166.33 86.2041 150.692 86.2041 127.5H78.2041H70.2041C70.2041 153.308 76.9797 174.003 92.031 187.881L97.4541 182ZM78.2041 127.5H86.2041C86.2041 103.89 92.5508 87.729 103.85 77.4063L98.4541 71.5L93.0582 65.5937C77.3574 79.9376 70.2041 101.11 70.2041 127.5H78.2041ZM98.4541 71.5L103.889 77.3701C115.476 66.6417 132.287 60.75 155.454 60.75V52.75V44.75C129.622 44.75 108.432 51.3583 93.0188 65.6299L98.4541 71.5ZM155.454 52.75V60.75C167.544 60.75 182.371 62.5622 200.038 66.3245L201.704 58.5L203.37 50.6755C185.037 46.7712 169.031 44.75 155.454 44.75V52.75ZM201.704 58.5H193.704C193.704 61.4188 193.405 66.0942 192.744 72.704L200.704 73.5L208.664 74.296C209.337 67.5725 209.704 62.2479 209.704 58.5H201.704ZM200.704 73.5L192.746 72.6838C192.08 79.1781 191.457 83.2533 190.943 85.3097L198.704 87.25L206.465 89.1903C207.284 85.9134 207.995 80.8219 208.662 74.3162L200.704 73.5ZM198.704 87.25L198.926 79.2531L189.926 79.0031L189.704 87L189.482 94.9969L198.482 95.2469L198.704 87.25ZM189.704 87L189.946 79.0037C178.918 78.6695 170.241 78.5 163.954 78.5V86.5V94.5C170.001 94.5 178.491 94.6639 189.462 94.9963L189.704 87ZM163.954 86.5V78.5C154.61 78.5 147.129 78.7709 141.662 79.3583C138.952 79.6494 136.471 80.0448 134.4 80.6176C133.362 80.9045 132.224 81.2906 131.13 81.8408C130.112 82.3527 128.596 83.2699 127.363 84.8723L133.704 89.75L140.045 94.6277C139.229 95.6884 138.393 96.0978 138.317 96.1358C138.166 96.212 138.233 96.158 138.665 96.0386C139.531 95.7989 141.039 95.5173 143.371 95.2667C147.987 94.7708 154.798 94.5 163.954 94.5V86.5ZM133.704 89.75L127.585 84.5969C123.603 89.3259 121.346 95.8531 120.074 103.121L127.954 104.5L135.834 105.879C136.896 99.8136 138.472 96.5075 139.823 94.9031L133.704 89.75ZM127.954 104.5L120.043 103.313C118.989 110.337 118.454 117.151 118.454 123.75H126.454H134.454C134.454 118.015 134.919 111.996 135.866 105.687L127.954 104.5ZM126.454 123.75H118.454C118.454 135.343 119.727 145.2 122.79 152.756L130.204 149.75L137.618 146.744C135.681 141.966 134.454 134.49 134.454 123.75H126.454ZM130.204 149.75L122.79 152.756C125.909 160.448 130.987 166.452 138.22 169.951L141.704 162.75L145.189 155.549C142.088 154.048 139.5 151.386 137.618 146.744L130.204 149.75ZM141.704 162.75L138.22 169.951C144.901 173.184 153.252 174.5 162.704 174.5V166.5V158.5C154.489 158.5 148.841 157.316 145.189 155.549L141.704 162.75ZM162.704 166.5V174.5H163.704V166.5V158.5H162.704V166.5ZM163.704 166.5H171.704V118H163.704H155.704V166.5H163.704ZM163.704 118V126H207.704V118V110H163.704V118ZM330.256 197V205L337.997 194.982L330.256 197ZM292.456 197L284.67 198.838L292.456 205V197ZM285.656 168.2L293.442 166.362L293.417 166.26L285.656 168.2ZM284.256 162.8L276.411 164.369L276.519 164.836L284.256 162.8ZM282.256 157L275.396 161.116L275.6 161.438L282.256 157ZM278.856 154.4L280.961 146.682L278.571 146.405L278.856 154.4ZM262.456 154.6V146.6L254.456 154.6H262.456ZM262.456 197V205L270.456 197H262.456ZM226.456 197H218.456L226.456 205V197ZM226.456 84L225.863 76.022L218.456 84H226.456ZM302.456 85.4L300.362 93.1211L300.485 93.1533L302.456 85.4ZM320.056 96L313.696 100.853L313.842 101.038L320.056 96ZM320.456 135.6L326.632 140.686L326.703 140.598L320.456 135.6ZM302.456 143.8L301.559 135.851L294.456 143.8H302.456ZM302.456 145H294.456L301.773 152.971L302.456 145ZM314.056 149.6L308.807 155.637L309.09 155.872L314.056 149.6ZM320.456 159.4L328.197 157.382L328.186 157.339L320.456 159.4ZM262.456 132H254.456L261.573 139.951L262.456 132ZM285.456 107.2L280.806 113.71L280.949 113.81L285.456 107.2ZM262.456 104.6L261.986 96.6138L254.456 104.6H262.456ZM330.256 197V189H292.456V197V205H330.256V197ZM292.456 197L300.242 195.162L293.442 166.362L285.656 168.2L277.87 170.038L284.67 198.838L292.456 197ZM285.656 168.2L293.417 166.26C293.137 165.14 292.659 163.298 291.993 160.764L284.256 162.8L276.519 164.836C277.186 167.369 277.641 169.126 277.895 170.14L285.656 168.2ZM284.256 162.8L292.101 161.231C291.511 158.285 290.602 155.096 288.912 152.562L282.256 157L275.6 161.438C275.499 161.287 275.598 161.392 275.793 161.958C275.978 162.495 276.194 163.281 276.411 164.369L284.256 162.8ZM282.256 157L289.116 152.884C287.282 149.827 284.468 147.638 280.961 146.682L278.856 154.4L276.751 162.118C276.553 162.064 276.254 161.94 275.946 161.705C275.642 161.472 275.469 161.237 275.396 161.116L282.256 157ZM278.856 154.4L278.571 146.405C274.983 146.533 269.631 146.6 262.456 146.6V154.6V162.6C269.681 162.6 275.262 162.533 279.142 162.395L278.856 154.4ZM262.456 154.6H254.456V197H262.456H270.456V154.6H262.456ZM262.456 197V189H226.456V197V205H262.456V197ZM226.456 197H234.456V84H226.456H218.456V197H226.456ZM226.456 84L227.049 91.978C243.015 90.7905 257.882 90.2 271.656 90.2V82.2V74.2C257.43 74.2 242.164 74.8095 225.863 76.022L226.456 84ZM271.656 82.2V90.2C283.96 90.2 293.446 91.2454 300.362 93.1211L302.456 85.4L304.55 77.6789C295.733 75.2879 284.685 74.2 271.656 74.2V82.2ZM302.456 85.4L300.485 93.1533C307.089 94.8324 311.193 97.5735 313.696 100.853L320.056 96L326.416 91.1466C321.185 84.2932 313.556 79.9676 304.427 77.6466L302.456 85.4ZM320.056 96L313.842 101.038C316.328 104.104 318.056 108.903 318.056 116.4H326.056H334.056C334.056 106.564 331.785 97.7627 326.27 90.9616L320.056 96ZM326.056 116.4H318.056C318.056 123.368 316.458 127.791 314.209 130.602L320.456 135.6L326.703 140.598C331.92 134.076 334.056 125.698 334.056 116.4H326.056ZM320.456 135.6L314.281 130.514C312.334 132.879 308.626 135.053 301.559 135.851L302.456 143.8L303.354 151.749C312.82 150.681 321.112 147.388 326.632 140.686L320.456 135.6ZM302.456 143.8H294.456V145H302.456H310.456V143.8H302.456ZM302.456 145L301.773 152.971C305.018 153.249 307.207 154.246 308.807 155.637L314.056 149.6L319.305 143.563C314.771 139.62 309.227 137.551 303.139 137.029L302.456 145ZM314.056 149.6L309.09 155.872C310.919 157.32 312.097 159.1 312.726 161.461L320.456 159.4L328.186 157.339C326.682 151.7 323.593 146.947 319.022 143.328L314.056 149.6ZM320.456 159.4L312.715 161.418L322.515 199.018L330.256 197L337.997 194.982L328.197 157.382L320.456 159.4ZM262.456 132L261.573 139.951C263.281 140.141 266.049 140.2 269.456 140.2V132.2V124.2C265.93 124.2 264.031 124.126 263.34 124.049L262.456 132ZM269.456 132.2V140.2C274.749 140.2 279.25 139.981 282.8 139.468C284.571 139.212 286.319 138.854 287.905 138.32C289.361 137.831 291.41 136.96 293.113 135.257L287.456 129.6L281.799 123.943C282.635 123.107 283.285 122.994 282.807 123.155C282.46 123.271 281.741 123.455 280.512 123.632C278.062 123.986 274.43 124.2 269.456 124.2V132.2ZM287.456 129.6L293.113 135.257C295.52 132.85 296.553 129.727 297.078 127.276C297.642 124.649 297.856 121.631 297.856 118.4H289.856H281.856C281.856 121.036 281.671 122.818 281.434 123.924C281.378 124.183 281.326 124.377 281.283 124.514C281.262 124.581 281.244 124.632 281.231 124.666C281.225 124.683 281.22 124.696 281.216 124.704C281.213 124.713 281.211 124.717 281.211 124.717C281.211 124.717 281.213 124.713 281.217 124.704C281.221 124.695 281.228 124.682 281.237 124.665C281.256 124.631 281.286 124.578 281.33 124.511C281.418 124.378 281.568 124.175 281.799 123.943L287.456 129.6ZM289.856 118.4H297.856C297.856 111.777 296.077 104.759 289.963 100.59L285.456 107.2L280.949 113.81C280.968 113.823 280.992 113.84 281.035 113.896C281.082 113.957 281.187 114.113 281.31 114.425C281.571 115.089 281.856 116.328 281.856 118.4H289.856ZM285.456 107.2L290.106 100.69C285.187 97.1768 278.378 96.2 271.456 96.2V104.2V112.2C277.601 112.2 280.125 113.223 280.806 113.71L285.456 107.2ZM271.456 104.2V96.2C269.713 96.2 266.475 96.3498 261.986 96.6138L262.456 104.6L262.926 112.586C267.504 112.317 270.265 112.2 271.456 112.2V104.2ZM262.456 104.6H254.456V132H262.456H270.456V104.6H262.456ZM342.672 83V75L334.672 83H342.672ZM378.672 83H386.672L378.672 75V83ZM378.672 197V205L386.672 197H378.672ZM342.672 197H334.672L342.672 205V197ZM342.672 83V91H378.672V83V75H342.672V83ZM378.672 83H370.672V197H378.672H386.672V83H378.672ZM378.672 197V189H342.672V197V205H378.672V197ZM342.672 197H350.672V83H342.672H334.672V197H342.672ZM477.117 87.4L474.837 95.0683L474.865 95.0765L477.117 87.4ZM500.317 104L493.677 108.463L493.728 108.537L500.317 104ZM499.917 176.2L506.476 180.781L506.509 180.732L499.917 176.2ZM476.317 193L478.404 200.723L478.501 200.696L476.317 193ZM398.917 197H390.917L398.917 205V197ZM398.917 83V75L390.917 83H398.917ZM465.717 169.8L460.06 164.143L460.06 164.143L465.717 169.8ZM469.117 157.4L461.157 156.604L461.157 156.604L469.117 157.4ZM468.517 122.2L460.702 123.91L460.771 124.199L468.517 122.2ZM463.317 112L457.397 117.381L457.66 117.657L463.317 112ZM434.917 105.8L434.303 97.8236L426.917 105.8H434.917ZM434.917 172.2H426.917L433.982 180.145L434.917 172.2ZM458.517 172L459.369 179.954L459.61 179.925L458.517 172ZM438.917 83V91C454.099 91 465.987 92.4371 474.837 95.0683L477.117 87.4L479.397 79.7317C468.514 76.4962 454.935 75 438.917 75V83ZM477.117 87.4L474.865 95.0765C483.195 97.5199 489.322 101.983 493.677 108.463L500.317 104L506.957 99.5373C500.378 89.7501 491.039 83.1467 479.369 79.7234L477.117 87.4ZM500.317 104L493.728 108.537C498.036 114.794 500.717 124.606 500.717 139H508.717H516.717C516.717 122.994 513.798 109.473 506.906 99.4632L500.317 104ZM508.717 139H500.717C500.717 154.502 497.887 165.031 493.325 171.668L499.917 176.2L506.509 180.732C513.68 170.302 516.717 156.031 516.717 139H508.717ZM499.917 176.2L493.358 171.619C488.548 178.506 482.228 183.007 474.133 185.304L476.317 193L478.501 200.696C490.139 197.393 499.552 190.694 506.476 180.781L499.917 176.2ZM476.317 193L474.23 185.277C465.282 187.695 453.579 189 438.917 189V197V205C454.389 205 467.618 203.638 478.404 200.723L476.317 193ZM438.917 197V189H398.917V197V205H438.917V197ZM398.917 197H406.917V83H398.917H390.917V197H398.917ZM398.917 83V91H438.917V83V75H398.917V83ZM465.717 169.8L471.374 175.457C473.694 173.137 474.823 170.02 475.482 167.615C476.214 164.947 476.721 161.757 477.077 158.196L469.117 157.4L461.157 156.604C460.846 159.71 460.453 161.92 460.052 163.385C459.853 164.108 459.69 164.511 459.608 164.682C459.513 164.883 459.614 164.589 460.06 164.143L465.717 169.8ZM469.117 157.4L477.077 158.196C477.765 151.314 478.117 144.911 478.117 139H470.117H462.117C462.117 144.289 461.802 150.152 461.157 156.604L469.117 157.4ZM470.117 139H478.117C478.117 131.637 477.572 125.273 476.263 120.201L468.517 122.2L460.771 124.199C461.595 127.394 462.117 132.229 462.117 139H470.117ZM468.517 122.2L476.332 120.49C475.144 115.058 472.805 110.175 468.974 106.343L463.317 112L457.66 117.657C458.895 118.892 460.023 120.809 460.702 123.91L468.517 122.2ZM463.317 112L469.237 106.619C462.987 99.7444 453.316 97.4 442.717 97.4V105.4V113.4C451.585 113.4 455.647 115.456 457.397 117.381L463.317 112ZM442.717 105.4V97.4C440.665 97.4 437.815 97.5535 434.303 97.8236L434.917 105.8L435.531 113.776C438.953 113.513 441.303 113.4 442.717 113.4V105.4ZM434.917 105.8H426.917V172.2H434.917H442.917V105.8H434.917ZM434.917 172.2L433.982 180.145C436.741 180.47 440.667 180.6 445.517 180.6V172.6V164.6C440.767 164.6 437.626 164.464 435.852 164.255L434.917 172.2ZM445.517 172.6V180.6C450.652 180.6 455.281 180.392 459.369 179.954L458.517 172L457.665 164.046C454.286 164.408 450.248 164.6 445.517 164.6V172.6ZM458.517 172L459.61 179.925C461.761 179.628 463.789 179.24 465.555 178.701C467.07 178.238 469.473 177.357 471.374 175.457L465.717 169.8L460.06 164.143C460.628 163.575 461.102 163.338 461.164 163.307C461.256 163.261 461.189 163.305 460.879 163.399C460.245 163.593 459.14 163.838 457.424 164.075L458.517 172ZM524.298 83V75L516.298 83H524.298ZM606.098 83H614.098L606.098 75V83ZM606.098 107.8V115.8L614.098 107.8H606.098ZM560.298 107.8V99.8L552.298 107.8H560.298ZM560.298 130.4H552.298L560.298 138.4V130.4ZM598.098 130.4H606.098L598.098 122.4V130.4ZM598.098 152.2V160.2L606.098 152.2H598.098ZM560.298 152.2V144.2L552.298 152.2H560.298ZM560.298 197V205L568.298 197H560.298ZM524.298 197H516.298L524.298 205V197ZM524.298 83V91H606.098V83V75H524.298V83ZM606.098 83H598.098V107.8H606.098H614.098V83H606.098ZM606.098 107.8V99.8H560.298V107.8V115.8H606.098V107.8ZM560.298 107.8H552.298V130.4H560.298H568.298V107.8H560.298ZM560.298 130.4V138.4H598.098V130.4V122.4H560.298V130.4ZM598.098 130.4H590.098V152.2H598.098H606.098V130.4H598.098ZM598.098 152.2V144.2H560.298V152.2V160.2H598.098V152.2ZM560.298 152.2H552.298V197H560.298H568.298V152.2H560.298ZM560.298 197V189H524.298V197V205H560.298V197ZM524.298 197H532.298V83H524.298H516.298V197H524.298ZM618.453 83V75L610.453 83H618.453ZM654.453 83H662.453L654.453 75V83ZM654.453 197V205L662.453 197H654.453ZM618.453 197H610.453L618.453 205V197ZM618.453 83V91H654.453V83V75H618.453V83ZM654.453 83H646.453V197H654.453H662.453V83H654.453ZM654.453 197V189H618.453V197V205H654.453V197ZM618.453 197H626.453V83H618.453H610.453V197H618.453ZM778.498 197V205L786.24 194.982L778.498 197ZM740.698 197L732.912 198.838L740.698 205V197ZM733.898 168.2L741.684 166.362L741.659 166.26L733.898 168.2ZM732.498 162.8L724.654 164.369L724.762 164.836L732.498 162.8ZM730.498 157L723.638 161.116L723.842 161.438L730.498 157ZM727.098 154.4L729.203 146.682L726.813 146.405L727.098 154.4ZM710.698 154.6V146.6L702.698 154.6H710.698ZM710.698 197V205L718.698 197H710.698ZM674.698 197H666.698L674.698 205V197ZM674.698 84L674.105 76.022L666.698 84H674.698ZM750.698 85.4L748.604 93.1211L748.727 93.1533L750.698 85.4ZM768.298 96L761.939 100.853L762.084 101.038L768.298 96ZM768.698 135.6L774.874 140.686L774.945 140.598L768.698 135.6ZM750.698 143.8L749.801 135.851L742.698 143.8H750.698ZM750.698 145H742.698L750.015 152.971L750.698 145ZM762.298 149.6L757.049 155.637L757.333 155.872L762.298 149.6ZM768.698 159.4L776.44 157.382L776.428 157.339L768.698 159.4ZM710.698 132H702.698L709.815 139.951L710.698 132ZM733.698 107.2L729.048 113.71L729.192 113.81L733.698 107.2ZM710.698 104.6L710.228 96.6138L702.698 104.6H710.698ZM778.498 197V189H740.698V197V205H778.498V197ZM740.698 197L748.484 195.162L741.684 166.362L733.898 168.2L726.112 170.038L732.912 198.838L740.698 197ZM733.898 168.2L741.659 166.26C741.38 165.14 740.902 163.298 740.235 160.764L732.498 162.8L724.762 164.836C725.428 167.369 725.884 169.126 726.137 170.14L733.898 168.2ZM732.498 162.8L740.343 161.231C739.754 158.285 738.844 155.096 737.155 152.562L730.498 157L723.842 161.438C723.742 161.287 723.84 161.392 724.035 161.958C724.221 162.495 724.436 163.281 724.654 164.369L732.498 162.8ZM730.498 157L737.358 152.884C735.524 149.827 732.71 147.638 729.203 146.682L727.098 154.4L724.993 162.118C724.795 162.064 724.496 161.94 724.189 161.705C723.884 161.472 723.711 161.237 723.638 161.116L730.498 157ZM727.098 154.4L726.813 146.405C723.225 146.533 717.873 146.6 710.698 146.6V154.6V162.6C717.924 162.6 723.505 162.533 727.384 162.395L727.098 154.4ZM710.698 154.6H702.698V197H710.698H718.698V154.6H710.698ZM710.698 197V189H674.698V197V205H710.698V197ZM674.698 197H682.698V84H674.698H666.698V197H674.698ZM674.698 84L675.292 91.978C691.257 90.7905 706.124 90.2 719.898 90.2V82.2V74.2C705.673 74.2 690.406 74.8095 674.105 76.022L674.698 84ZM719.898 82.2V90.2C732.202 90.2 741.688 91.2454 748.604 93.1211L750.698 85.4L752.792 77.6789C743.975 75.2879 732.928 74.2 719.898 74.2V82.2ZM750.698 85.4L748.727 93.1533C755.331 94.8324 759.436 97.5735 761.939 100.853L768.298 96L774.658 91.1466C769.428 84.2932 761.798 79.9676 752.669 77.6466L750.698 85.4ZM768.298 96L762.084 101.038C764.57 104.104 766.298 108.903 766.298 116.4H774.298H782.298C782.298 106.564 780.027 97.7627 774.512 90.9616L768.298 96ZM774.298 116.4H766.298C766.298 123.368 764.701 127.791 762.451 130.602L768.698 135.6L774.945 140.598C780.163 134.076 782.298 125.698 782.298 116.4H774.298ZM768.698 135.6L762.523 130.514C760.576 132.879 756.868 135.053 749.801 135.851L750.698 143.8L751.596 151.749C761.062 150.681 769.354 147.388 774.874 140.686L768.698 135.6ZM750.698 143.8H742.698V145H750.698H758.698V143.8H750.698ZM750.698 145L750.015 152.971C753.26 153.249 755.45 154.246 757.049 155.637L762.298 149.6L767.548 143.563C763.014 139.62 757.469 137.551 751.381 137.029L750.698 145ZM762.298 149.6L757.333 155.872C759.161 157.32 760.339 159.1 760.968 161.461L768.698 159.4L776.428 157.339C774.924 151.7 771.835 146.947 767.264 143.328L762.298 149.6ZM768.698 159.4L760.957 161.418L770.757 199.018L778.498 197L786.24 194.982L776.44 157.382L768.698 159.4ZM710.698 132L709.815 139.951C711.524 140.141 714.291 140.2 717.698 140.2V132.2V124.2C714.172 124.2 712.273 124.126 711.582 124.049L710.698 132ZM717.698 132.2V140.2C722.991 140.2 727.493 139.981 731.042 139.468C732.813 139.212 734.561 138.854 736.148 138.32C737.603 137.831 739.652 136.96 741.355 135.257L735.698 129.6L730.041 123.943C730.877 123.107 731.527 122.994 731.049 123.155C730.702 123.271 729.983 123.455 728.755 123.632C726.304 123.986 722.672 124.2 717.698 124.2V132.2ZM735.698 129.6L741.355 135.257C743.762 132.85 744.795 129.727 745.321 127.276C745.884 124.649 746.098 121.631 746.098 118.4H738.098H730.098C730.098 121.036 729.913 122.818 729.676 123.924C729.62 124.183 729.568 124.377 729.525 124.514C729.504 124.581 729.486 124.632 729.473 124.666C729.467 124.683 729.462 124.696 729.458 124.704C729.455 124.713 729.453 124.717 729.453 124.717C729.453 124.717 729.455 124.713 729.459 124.704C729.463 124.695 729.47 124.682 729.48 124.665C729.498 124.631 729.528 124.578 729.572 124.511C729.66 124.378 729.81 124.175 730.041 123.943L735.698 129.6ZM738.098 118.4H746.098C746.098 111.777 744.319 104.759 738.205 100.59L733.698 107.2L729.192 113.81C729.211 113.823 729.234 113.84 729.277 113.896C729.324 113.957 729.43 114.113 729.552 114.425C729.813 115.089 730.098 116.328 730.098 118.4H738.098ZM733.698 107.2L738.348 100.69C733.43 97.1768 726.62 96.2 719.698 96.2V104.2V112.2C725.843 112.2 728.367 113.223 729.048 113.71L733.698 107.2ZM719.698 104.2V96.2C717.955 96.2 714.717 96.3498 710.228 96.6138L710.698 104.6L711.168 112.586C715.746 112.317 718.508 112.2 719.698 112.2V104.2ZM710.698 104.6H702.698V132H710.698H718.698V104.6H710.698ZM791.964 54.5V46.5L783.964 54.5H791.964ZM895.714 54.5H903.714L895.714 46.5V54.5ZM895.714 84.5V92.5L903.714 84.5H895.714ZM836.964 84.5V76.5L828.964 84.5H836.964ZM836.964 110.5H828.964L836.964 118.5V110.5ZM886.464 110.5H894.464L886.464 102.5V110.5ZM886.464 137.5V145.5L894.464 137.5H886.464ZM836.964 137.5V129.5L828.964 137.5H836.964ZM836.964 166.5H828.964L836.964 174.5V166.5ZM895.464 166.5H903.464L895.464 158.5V166.5ZM895.464 197V205L903.464 197H895.464ZM791.964 197H783.964L791.964 205V197ZM791.964 54.5V62.5H895.714V54.5V46.5H791.964V54.5ZM895.714 54.5H887.714V84.5H895.714H903.714V54.5H895.714ZM895.714 84.5V76.5H836.964V84.5V92.5H895.714V84.5ZM836.964 84.5H828.964V110.5H836.964H844.964V84.5H836.964ZM836.964 110.5V118.5H886.464V110.5V102.5H836.964V110.5ZM886.464 110.5H878.464V137.5H886.464H894.464V110.5H886.464ZM886.464 137.5V129.5H836.964V137.5V145.5H886.464V137.5ZM836.964 137.5H828.964V166.5H836.964H844.964V137.5H836.964ZM836.964 166.5V174.5H895.464V166.5V158.5H836.964V166.5ZM895.464 166.5H887.464V197H895.464H903.464V166.5H895.464ZM895.464 197V189H791.964V197V205H895.464V197ZM791.964 197H799.964V54.5H791.964H783.964V197H791.964Z" fill="url(#paint1_linear_0_1)" mask="url(#path-1-outside-1_0_1)"/>
</g>
<g filter="url(#filter1_d_0_1)">
<mask id="path-3-outside-2_0_1" maskUnits="userSpaceOnUse" x="64" y="38" width="846" height="176" fill="black">
<rect fill="white" x="64" y="38" width="846" height="176"/>
<path d="M207.704 118V189.25C196.537 192.917 185.954 195.583 175.954 197.25C165.954 198.917 157.537 199.75 150.704 199.75C128.037 199.75 110.287 193.833 97.4541 182C84.6208 170.167 78.2041 152 78.2041 127.5C78.2041 102.5 84.9541 83.8333 98.4541 71.5C111.954 59 130.954 52.75 155.454 52.75C168.287 52.75 183.704 54.6667 201.704 58.5C201.704 61.8333 201.371 66.8333 200.704 73.5C200.037 80 199.371 84.5833 198.704 87.25L189.704 87C178.704 86.6667 170.121 86.5 163.954 86.5C145.454 86.5 135.371 87.5833 133.704 89.75C131.037 92.9167 129.121 97.8333 127.954 104.5C126.954 111.167 126.454 117.583 126.454 123.75C126.454 134.917 127.704 143.583 130.204 149.75C132.704 155.917 136.537 160.25 141.704 162.75C146.871 165.25 153.871 166.5 162.704 166.5H163.704V118H207.704ZM330.256 197H292.456L285.656 168.2C285.389 167.133 284.923 165.333 284.256 162.8C283.723 160.133 283.056 158.2 282.256 157C281.456 155.667 280.323 154.8 278.856 154.4C275.123 154.533 269.656 154.6 262.456 154.6V197H226.456V84C242.589 82.8 257.656 82.2 271.656 82.2C284.323 82.2 294.589 83.2667 302.456 85.4C310.323 87.4 316.189 90.9333 320.056 96C324.056 100.933 326.056 107.733 326.056 116.4C326.056 124.533 324.189 130.933 320.456 135.6C316.723 140.133 310.723 142.867 302.456 143.8V145C307.123 145.4 310.989 146.933 314.056 149.6C317.256 152.133 319.389 155.4 320.456 159.4L330.256 197ZM262.456 132C263.656 132.133 265.989 132.2 269.456 132.2C279.723 132.2 285.723 131.333 287.456 129.6C289.056 128 289.856 124.267 289.856 118.4C289.856 112.933 288.389 109.2 285.456 107.2C282.656 105.2 277.989 104.2 271.456 104.2C269.989 104.2 266.989 104.333 262.456 104.6V132ZM342.672 83H378.672V197H342.672V83ZM438.917 83C454.517 83 467.25 84.4667 477.117 87.4C487.117 90.3333 494.85 95.8667 500.317 104C505.917 112.133 508.717 123.8 508.717 139C508.717 155.267 505.784 167.667 499.917 176.2C494.05 184.6 486.184 190.2 476.317 193C466.45 195.667 453.984 197 438.917 197H398.917V83H438.917ZM465.717 169.8C467.317 168.2 468.45 164.067 469.117 157.4C469.784 150.733 470.117 144.6 470.117 139C470.117 131.933 469.584 126.333 468.517 122.2C467.584 117.933 465.85 114.533 463.317 112C459.317 107.6 452.45 105.4 442.717 105.4C440.984 105.4 438.384 105.533 434.917 105.8V172.2C437.184 172.467 440.717 172.6 445.517 172.6C450.45 172.6 454.784 172.4 458.517 172C462.384 171.467 464.784 170.733 465.717 169.8ZM524.298 83H606.098V107.8H560.298V130.4H598.098V152.2H560.298V197H524.298V83ZM618.453 83H654.453V197H618.453V83ZM778.498 197H740.698L733.898 168.2C733.632 167.133 733.165 165.333 732.498 162.8C731.965 160.133 731.298 158.2 730.498 157C729.698 155.667 728.565 154.8 727.098 154.4C723.365 154.533 717.898 154.6 710.698 154.6V197H674.698V84C690.832 82.8 705.898 82.2 719.898 82.2C732.565 82.2 742.832 83.2667 750.698 85.4C758.565 87.4 764.432 90.9333 768.298 96C772.298 100.933 774.298 107.733 774.298 116.4C774.298 124.533 772.432 130.933 768.698 135.6C764.965 140.133 758.965 142.867 750.698 143.8V145C755.365 145.4 759.232 146.933 762.298 149.6C765.498 152.133 767.632 155.4 768.698 159.4L778.498 197ZM710.698 132C711.898 132.133 714.232 132.2 717.698 132.2C727.965 132.2 733.965 131.333 735.698 129.6C737.298 128 738.098 124.267 738.098 118.4C738.098 112.933 736.632 109.2 733.698 107.2C730.898 105.2 726.232 104.2 719.698 104.2C718.232 104.2 715.232 104.333 710.698 104.6V132ZM791.964 54.5H895.714V84.5H836.964V110.5H886.464V137.5H836.964V166.5H895.464V197H791.964V54.5Z"/>
</mask>
<path d="M207.704 118V189.25C196.537 192.917 185.954 195.583 175.954 197.25C165.954 198.917 157.537 199.75 150.704 199.75C128.037 199.75 110.287 193.833 97.4541 182C84.6208 170.167 78.2041 152 78.2041 127.5C78.2041 102.5 84.9541 83.8333 98.4541 71.5C111.954 59 130.954 52.75 155.454 52.75C168.287 52.75 183.704 54.6667 201.704 58.5C201.704 61.8333 201.371 66.8333 200.704 73.5C200.037 80 199.371 84.5833 198.704 87.25L189.704 87C178.704 86.6667 170.121 86.5 163.954 86.5C145.454 86.5 135.371 87.5833 133.704 89.75C131.037 92.9167 129.121 97.8333 127.954 104.5C126.954 111.167 126.454 117.583 126.454 123.75C126.454 134.917 127.704 143.583 130.204 149.75C132.704 155.917 136.537 160.25 141.704 162.75C146.871 165.25 153.871 166.5 162.704 166.5H163.704V118H207.704ZM330.256 197H292.456L285.656 168.2C285.389 167.133 284.923 165.333 284.256 162.8C283.723 160.133 283.056 158.2 282.256 157C281.456 155.667 280.323 154.8 278.856 154.4C275.123 154.533 269.656 154.6 262.456 154.6V197H226.456V84C242.589 82.8 257.656 82.2 271.656 82.2C284.323 82.2 294.589 83.2667 302.456 85.4C310.323 87.4 316.189 90.9333 320.056 96C324.056 100.933 326.056 107.733 326.056 116.4C326.056 124.533 324.189 130.933 320.456 135.6C316.723 140.133 310.723 142.867 302.456 143.8V145C307.123 145.4 310.989 146.933 314.056 149.6C317.256 152.133 319.389 155.4 320.456 159.4L330.256 197ZM262.456 132C263.656 132.133 265.989 132.2 269.456 132.2C279.723 132.2 285.723 131.333 287.456 129.6C289.056 128 289.856 124.267 289.856 118.4C289.856 112.933 288.389 109.2 285.456 107.2C282.656 105.2 277.989 104.2 271.456 104.2C269.989 104.2 266.989 104.333 262.456 104.6V132ZM342.672 83H378.672V197H342.672V83ZM438.917 83C454.517 83 467.25 84.4667 477.117 87.4C487.117 90.3333 494.85 95.8667 500.317 104C505.917 112.133 508.717 123.8 508.717 139C508.717 155.267 505.784 167.667 499.917 176.2C494.05 184.6 486.184 190.2 476.317 193C466.45 195.667 453.984 197 438.917 197H398.917V83H438.917ZM465.717 169.8C467.317 168.2 468.45 164.067 469.117 157.4C469.784 150.733 470.117 144.6 470.117 139C470.117 131.933 469.584 126.333 468.517 122.2C467.584 117.933 465.85 114.533 463.317 112C459.317 107.6 452.45 105.4 442.717 105.4C440.984 105.4 438.384 105.533 434.917 105.8V172.2C437.184 172.467 440.717 172.6 445.517 172.6C450.45 172.6 454.784 172.4 458.517 172C462.384 171.467 464.784 170.733 465.717 169.8ZM524.298 83H606.098V107.8H560.298V130.4H598.098V152.2H560.298V197H524.298V83ZM618.453 83H654.453V197H618.453V83ZM778.498 197H740.698L733.898 168.2C733.632 167.133 733.165 165.333 732.498 162.8C731.965 160.133 731.298 158.2 730.498 157C729.698 155.667 728.565 154.8 727.098 154.4C723.365 154.533 717.898 154.6 710.698 154.6V197H674.698V84C690.832 82.8 705.898 82.2 719.898 82.2C732.565 82.2 742.832 83.2667 750.698 85.4C758.565 87.4 764.432 90.9333 768.298 96C772.298 100.933 774.298 107.733 774.298 116.4C774.298 124.533 772.432 130.933 768.698 135.6C764.965 140.133 758.965 142.867 750.698 143.8V145C755.365 145.4 759.232 146.933 762.298 149.6C765.498 152.133 767.632 155.4 768.698 159.4L778.498 197ZM710.698 132C711.898 132.133 714.232 132.2 717.698 132.2C727.965 132.2 733.965 131.333 735.698 129.6C737.298 128 738.098 124.267 738.098 118.4C738.098 112.933 736.632 109.2 733.698 107.2C730.898 105.2 726.232 104.2 719.698 104.2C718.232 104.2 715.232 104.333 710.698 104.6V132ZM791.964 54.5H895.714V84.5H836.964V110.5H886.464V137.5H836.964V166.5H895.464V197H791.964V54.5Z" fill="url(#paint2_linear_0_1)"/>
<path d="M207.704 118H221.704C221.704 110.268 215.436 104 207.704 104V118ZM207.704 189.25L212.072 202.551C217.819 200.664 221.704 195.299 221.704 189.25H207.704ZM175.954 197.25L173.653 183.44L175.954 197.25ZM97.4541 182L87.9637 192.292L87.9637 192.292L97.4541 182ZM98.4541 71.5L107.897 81.836C107.92 81.815 107.943 81.7938 107.966 81.7726L98.4541 71.5ZM201.704 58.5H215.704C215.704 51.8918 211.083 46.1835 204.62 44.8071L201.704 58.5ZM200.704 73.5L214.631 74.9284C214.632 74.9166 214.633 74.9048 214.635 74.893L200.704 73.5ZM198.704 87.25L198.315 101.245C204.882 101.427 210.693 97.0188 212.286 90.6455L198.704 87.25ZM189.704 87L189.28 100.994C189.292 100.994 189.304 100.994 189.315 100.995L189.704 87ZM133.704 89.75L144.413 98.7679C144.546 98.6101 144.675 98.4494 144.801 98.286L133.704 89.75ZM127.954 104.5L114.164 102.087C114.144 102.199 114.126 102.311 114.109 102.423L127.954 104.5ZM130.204 149.75L117.23 155.01L117.23 155.01L130.204 149.75ZM141.704 162.75L135.606 175.352L135.606 175.352L141.704 162.75ZM163.704 166.5V180.5C171.436 180.5 177.704 174.232 177.704 166.5H163.704ZM163.704 118V104C155.972 104 149.704 110.268 149.704 118H163.704ZM207.704 118H193.704V189.25H207.704H221.704V118H207.704ZM207.704 189.25L203.337 175.949C192.741 179.428 182.852 181.907 173.653 183.44L175.954 197.25L178.256 211.06C189.056 209.259 200.334 206.405 212.072 202.551L207.704 189.25ZM175.954 197.25L173.653 183.44C164.086 185.035 156.494 185.75 150.704 185.75V199.75V213.75C158.581 213.75 167.822 212.799 178.256 211.06L175.954 197.25ZM150.704 199.75V185.75C130.473 185.75 116.494 180.513 106.944 171.708L97.4541 182L87.9637 192.292C104.081 207.153 125.602 213.75 150.704 213.75V199.75ZM97.4541 182L106.944 171.708C97.9926 163.453 92.2041 149.71 92.2041 127.5H78.2041H64.2041C64.2041 154.29 71.2489 176.88 87.9637 192.292L97.4541 182ZM78.2041 127.5H92.2041C92.2041 104.933 98.2483 90.6508 107.897 81.836L98.4541 71.5L89.0113 61.164C71.6599 77.0158 64.2041 100.067 64.2041 127.5H78.2041ZM98.4541 71.5L107.966 81.7726C118.117 72.373 133.286 66.75 155.454 66.75V52.75V38.75C128.622 38.75 105.791 45.627 88.9424 61.2273L98.4541 71.5ZM155.454 52.75V66.75C166.986 66.75 181.371 68.4838 198.788 72.1929L201.704 58.5L204.62 44.8071C186.037 40.8495 169.589 38.75 155.454 38.75V52.75ZM201.704 58.5H187.704C187.704 61.1078 187.43 65.5398 186.774 72.1069L200.704 73.5L214.635 74.893C215.311 68.1269 215.704 62.5588 215.704 58.5H201.704ZM200.704 73.5L186.777 72.0716C186.112 78.5617 185.522 82.2558 185.122 83.8545L198.704 87.25L212.286 90.6455C213.22 86.9109 213.963 81.4382 214.631 74.9284L200.704 73.5ZM198.704 87.25L199.093 73.2554L190.093 73.0054L189.704 87L189.315 100.995L198.315 101.245L198.704 87.25ZM189.704 87L190.128 73.0064C179.078 72.6716 170.331 72.5 163.954 72.5V86.5V100.5C169.911 100.5 178.331 100.662 189.28 100.994L189.704 87ZM163.954 86.5V72.5C154.539 72.5 146.808 72.7709 141.021 73.3926C138.17 73.6989 135.323 74.137 132.8 74.8348C131.536 75.1845 129.996 75.6951 128.435 76.4801C127.007 77.1983 124.608 78.613 122.607 81.214L133.704 89.75L144.801 98.286C143.217 100.345 141.498 101.252 141.012 101.496C140.394 101.807 140.06 101.878 140.264 101.821C140.679 101.707 141.822 101.468 144.012 101.232C148.309 100.771 154.869 100.5 163.954 100.5V86.5ZM133.704 89.75L122.995 80.7321C118.026 86.6328 115.514 94.3679 114.164 102.087L127.954 104.5L141.745 106.913C142.727 101.299 144.049 99.2006 144.413 98.7679L133.704 89.75ZM127.954 104.5L114.109 102.423C113.015 109.715 112.454 116.827 112.454 123.75H126.454H140.454C140.454 118.339 140.893 112.619 141.799 106.577L127.954 104.5ZM126.454 123.75H112.454C112.454 135.663 113.745 146.413 117.23 155.01L130.204 149.75L143.178 144.49C141.664 140.754 140.454 134.17 140.454 123.75H126.454ZM130.204 149.75L117.23 155.01C120.812 163.846 126.825 171.103 135.606 175.352L141.704 162.75L147.802 150.148C146.25 149.397 144.596 147.988 143.178 144.49L130.204 149.75ZM141.704 162.75L135.606 175.352C143.423 179.135 152.788 180.5 162.704 180.5V166.5V152.5C154.953 152.5 150.318 151.365 147.802 150.148L141.704 162.75ZM162.704 166.5V180.5H163.704V166.5V152.5H162.704V166.5ZM163.704 166.5H177.704V118H163.704H149.704V166.5H163.704ZM163.704 118V132H207.704V118V104H163.704V118ZM330.256 197V211C334.592 211 338.683 208.991 341.334 205.561C343.985 202.13 344.897 197.665 343.803 193.469L330.256 197ZM292.456 197L278.831 200.217C280.323 206.536 285.963 211 292.456 211V197ZM285.656 168.2L299.281 164.983C299.267 164.923 299.253 164.864 299.238 164.804L285.656 168.2ZM284.256 162.8L270.528 165.546C270.583 165.82 270.646 166.092 270.717 166.363L284.256 162.8ZM282.256 157L270.251 164.203C270.365 164.393 270.484 164.581 270.607 164.766L282.256 157ZM278.856 154.4L282.54 140.893C281.178 140.522 279.767 140.359 278.356 140.409L278.856 154.4ZM262.456 154.6V140.6C254.724 140.6 248.456 146.868 248.456 154.6H262.456ZM262.456 197V211C270.188 211 276.456 204.732 276.456 197H262.456ZM226.456 197H212.456C212.456 204.732 218.724 211 226.456 211V197ZM226.456 84L225.418 70.0386C218.109 70.5822 212.456 76.6709 212.456 84H226.456ZM302.456 85.4L298.792 98.912C298.863 98.9313 298.935 98.9501 299.006 98.9684L302.456 85.4ZM320.056 96L308.927 104.493C309.01 104.603 309.095 104.711 309.181 104.817L320.056 96ZM320.456 135.6L331.263 144.5C331.305 144.449 331.347 144.397 331.388 144.346L320.456 135.6ZM302.456 143.8L300.885 129.888C293.806 130.688 288.456 136.676 288.456 143.8H302.456ZM302.456 145H288.456C288.456 152.269 294.018 158.328 301.26 158.949L302.456 145ZM314.056 149.6L304.87 160.164C305.032 160.306 305.198 160.443 305.366 160.577L314.056 149.6ZM320.456 159.4L334.003 155.869C333.997 155.844 333.99 155.818 333.983 155.793L320.456 159.4ZM262.456 132H248.456C248.456 139.134 253.82 145.127 260.91 145.914L262.456 132ZM285.456 107.2L277.319 118.592C277.402 118.651 277.485 118.71 277.569 118.767L285.456 107.2ZM262.456 104.6L261.634 90.6242C254.234 91.0594 248.456 97.1873 248.456 104.6H262.456ZM330.256 197V183H292.456V197V211H330.256V197ZM292.456 197L306.081 193.783L299.281 164.983L285.656 168.2L272.031 171.417L278.831 200.217L292.456 197ZM285.656 168.2L299.238 164.804C298.948 163.646 298.462 161.771 297.795 159.237L284.256 162.8L270.717 166.363C271.383 168.895 271.83 170.621 272.074 171.596L285.656 168.2ZM284.256 162.8L297.984 160.054C297.353 156.899 296.261 152.768 293.905 149.234L282.256 157L270.607 164.766C270.351 164.381 270.209 164.095 270.151 163.973C270.092 163.846 270.087 163.816 270.121 163.914C270.154 164.009 270.211 164.189 270.284 164.471C270.357 164.752 270.44 165.107 270.528 165.546L284.256 162.8ZM282.256 157L294.261 149.797C291.651 145.447 287.577 142.267 282.54 140.893L278.856 154.4L275.172 167.907C274.276 167.662 273.265 167.208 272.302 166.471C271.343 165.738 270.678 164.915 270.251 164.203L282.256 157ZM278.856 154.4L278.356 140.409C274.878 140.533 269.612 140.6 262.456 140.6V154.6V168.6C269.7 168.6 275.367 168.534 279.356 168.391L278.856 154.4ZM262.456 154.6H248.456V197H262.456H276.456V154.6H262.456ZM262.456 197V183H226.456V197V211H262.456V197ZM226.456 197H240.456V84H226.456H212.456V197H226.456ZM226.456 84L227.495 97.9614C243.334 96.7833 258.051 96.2 271.656 96.2V82.2V68.2C257.261 68.2 241.845 68.8167 225.418 70.0386L226.456 84ZM271.656 82.2V96.2C283.688 96.2 292.588 97.2295 298.792 98.912L302.456 85.4L306.12 71.888C296.591 69.3039 284.958 68.2 271.656 68.2V82.2ZM302.456 85.4L299.006 98.9684C304.664 100.407 307.446 102.554 308.927 104.493L320.056 96L331.185 87.5066C324.932 79.313 315.981 74.3932 305.906 71.8316L302.456 85.4ZM320.056 96L309.181 104.817C310.531 106.482 312.056 109.78 312.056 116.4H326.056H340.056C340.056 105.687 337.581 95.3847 330.931 87.1828L320.056 96ZM326.056 116.4H312.056C312.056 122.495 310.66 125.434 309.524 126.854L320.456 135.6L331.388 144.346C337.719 136.433 340.056 126.572 340.056 116.4H326.056ZM320.456 135.6L309.649 126.7C309.042 127.438 307.053 129.192 300.885 129.888L302.456 143.8L304.027 157.712C314.393 156.541 324.404 152.829 331.263 144.5L320.456 135.6ZM302.456 143.8H288.456V145H302.456H316.456V143.8H302.456ZM302.456 145L301.26 158.949C303.44 159.136 304.371 159.731 304.87 160.164L314.056 149.6L323.243 139.036C317.608 134.136 310.805 131.664 303.652 131.051L302.456 145ZM314.056 149.6L305.366 160.577C306.166 161.21 306.627 161.876 306.929 163.007L320.456 159.4L333.983 155.793C332.152 148.924 328.346 143.057 322.746 138.623L314.056 149.6ZM320.456 159.4L306.909 162.931L316.709 200.531L330.256 197L343.803 193.469L334.003 155.869L320.456 159.4ZM262.456 132L260.91 145.914C263 146.147 266.094 146.2 269.456 146.2V132.2V118.2C267.799 118.2 266.492 118.184 265.506 118.156C265.015 118.142 264.638 118.126 264.36 118.11C264.066 118.093 263.965 118.082 264.002 118.086L262.456 132ZM269.456 132.2V146.2C274.868 146.2 279.696 145.978 283.658 145.406C285.632 145.121 287.766 144.697 289.818 144.008C291.639 143.395 294.701 142.154 297.356 139.499L287.456 129.6L277.557 119.701C278.531 118.726 279.435 118.172 279.938 117.899C280.459 117.617 280.817 117.494 280.895 117.467C281.013 117.428 280.68 117.546 279.655 117.694C277.616 117.988 274.31 118.2 269.456 118.2V132.2ZM287.456 129.6L297.356 139.499C300.968 135.887 302.326 131.422 302.945 128.533C303.631 125.335 303.856 121.854 303.856 118.4H289.856H275.856C275.856 119.559 275.816 120.496 275.754 121.237C275.692 121.988 275.614 122.445 275.567 122.667C275.515 122.908 275.532 122.715 275.739 122.255C275.942 121.805 276.463 120.794 277.557 119.701L287.456 129.6ZM289.856 118.4H303.856C303.856 110.91 301.842 101.428 293.343 95.6328L285.456 107.2L277.569 118.767C277.053 118.415 276.613 117.989 276.275 117.548C275.945 117.119 275.786 116.773 275.726 116.619C275.669 116.476 275.706 116.521 275.756 116.829C275.805 117.138 275.856 117.648 275.856 118.4H289.856ZM285.456 107.2L293.593 95.8077C287.086 91.1595 278.67 90.2 271.456 90.2V104.2V118.2C274.07 118.2 275.833 118.406 276.923 118.639C278.06 118.883 277.957 119.048 277.319 118.592L285.456 107.2ZM271.456 104.2V90.2C269.506 90.2 266.089 90.3621 261.634 90.6242L262.456 104.6L263.278 118.576C267.89 118.305 270.473 118.2 271.456 118.2V104.2ZM262.456 104.6H248.456V132H262.456H276.456V104.6H262.456ZM342.672 83V69C334.94 69 328.672 75.268 328.672 83H342.672ZM378.672 83H392.672C392.672 75.268 386.404 69 378.672 69V83ZM378.672 197V211C386.404 211 392.672 204.732 392.672 197H378.672ZM342.672 197H328.672C328.672 204.732 334.94 211 342.672 211V197ZM342.672 83V97H378.672V83V69H342.672V83ZM378.672 83H364.672V197H378.672H392.672V83H378.672ZM378.672 197V183H342.672V197V211H378.672V197ZM342.672 197H356.672V83H342.672H328.672V197H342.672ZM477.117 87.4L473.127 100.82C473.144 100.824 473.16 100.829 473.176 100.834L477.117 87.4ZM500.317 104L488.698 111.81C488.727 111.853 488.756 111.896 488.786 111.939L500.317 104ZM499.917 176.2L511.395 184.216C511.414 184.188 511.434 184.16 511.454 184.131L499.917 176.2ZM476.317 193L479.97 206.515C480.026 206.5 480.083 206.484 480.139 206.468L476.317 193ZM398.917 197H384.917C384.917 204.732 391.185 211 398.917 211V197ZM398.917 83V69C391.185 69 384.917 75.268 384.917 83H398.917ZM465.717 169.8L455.818 159.9L455.817 159.901L465.717 169.8ZM469.117 157.4L455.186 156.007L455.186 156.007L469.117 157.4ZM468.517 122.2L454.84 125.192C454.877 125.361 454.918 125.53 454.961 125.698L468.517 122.2ZM463.317 112L452.958 121.417C453.107 121.582 453.26 121.742 453.418 121.9L463.317 112ZM434.917 105.8L433.843 91.8412C426.549 92.4023 420.917 98.4845 420.917 105.8H434.917ZM434.917 172.2H420.917C420.917 179.299 426.231 185.275 433.281 186.104L434.917 172.2ZM458.517 172L460.008 185.92C460.149 185.905 460.29 185.888 460.43 185.869L458.517 172ZM438.917 83V97C453.786 97 465.039 98.4149 473.127 100.82L477.117 87.4L481.107 73.9805C469.461 70.5184 455.248 69 438.917 69V83ZM477.117 87.4L473.176 100.834C480.253 102.91 485.176 106.571 488.698 111.81L500.317 104L511.936 96.1903C504.524 85.1627 493.981 77.7568 481.058 73.966L477.117 87.4ZM500.317 104L488.786 111.939C492.125 116.789 494.717 125.211 494.717 139H508.717H522.717C522.717 122.389 519.709 107.478 511.848 96.0606L500.317 104ZM508.717 139H494.717C494.717 153.928 491.965 163.054 488.38 168.269L499.917 176.2L511.454 184.131C519.602 172.279 522.717 156.605 522.717 139H508.717ZM499.917 176.2L488.439 168.184C484.422 173.936 479.261 177.612 472.495 179.532L476.317 193L480.139 206.468C493.106 202.788 503.679 195.264 511.395 184.216L499.917 176.2ZM476.317 193L472.664 179.485C464.407 181.717 453.275 183 438.917 183V197V211C454.693 211 468.494 209.617 479.97 206.515L476.317 193ZM438.917 197V183H398.917V197V211H438.917V197ZM398.917 197H412.917V83H398.917H384.917V197H398.917ZM398.917 83V97H438.917V83V69H398.917V83ZM465.717 169.8L475.616 179.7C479.076 176.24 480.54 171.859 481.269 169.202C482.124 166.082 482.674 162.524 483.048 158.793L469.117 157.4L455.186 156.007C454.893 158.943 454.543 160.785 454.265 161.798C454.131 162.29 454.079 162.338 454.192 162.1C454.281 161.914 454.737 160.981 455.818 159.9L465.717 169.8ZM469.117 157.4L483.048 158.793C483.752 151.75 484.117 145.145 484.117 139H470.117H456.117C456.117 144.055 455.816 149.717 455.186 156.007L469.117 157.4ZM470.117 139H484.117C484.117 131.415 483.564 124.478 482.073 118.702L468.517 122.2L454.961 125.698C455.604 128.189 456.117 132.451 456.117 139H470.117ZM468.517 122.2L482.194 119.208C480.814 112.902 478.022 106.906 473.216 102.1L463.317 112L453.418 121.9C453.679 122.161 454.353 122.965 454.84 125.192L468.517 122.2ZM463.317 112L473.676 102.583C465.74 93.8526 453.965 91.4 442.717 91.4V105.4V119.4C450.935 119.4 452.894 121.347 452.958 121.417L463.317 112ZM442.717 105.4V91.4C440.425 91.4 437.388 91.5686 433.843 91.8412L434.917 105.8L435.991 119.759C439.38 119.498 441.542 119.4 442.717 119.4V105.4ZM434.917 105.8H420.917V172.2H434.917H448.917V105.8H434.917ZM434.917 172.2L433.281 186.104C436.409 186.472 440.629 186.6 445.517 186.6V172.6V158.6C440.805 158.6 437.958 158.461 436.553 158.296L434.917 172.2ZM445.517 172.6V186.6C450.804 186.6 455.654 186.387 460.008 185.92L458.517 172L457.026 158.08C453.913 158.413 450.097 158.6 445.517 158.6V172.6ZM458.517 172L460.43 185.869C462.744 185.55 465.119 185.108 467.308 184.439C469.059 183.904 472.641 182.675 475.616 179.699L465.717 169.8L455.817 159.901C456.428 159.29 456.997 158.855 457.43 158.561C457.866 158.265 458.232 158.065 458.481 157.941C458.954 157.704 459.218 157.633 459.126 157.661C459.058 157.682 458.821 157.749 458.368 157.84C457.924 157.93 457.343 158.029 456.604 158.131L458.517 172ZM524.298 83V69C516.566 69 510.298 75.268 510.298 83H524.298ZM606.098 83H620.098C620.098 75.268 613.83 69 606.098 69V83ZM606.098 107.8V121.8C613.83 121.8 620.098 115.532 620.098 107.8H606.098ZM560.298 107.8V93.8C552.566 93.8 546.298 100.068 546.298 107.8H560.298ZM560.298 130.4H546.298C546.298 138.132 552.566 144.4 560.298 144.4V130.4ZM598.098 130.4H612.098C612.098 122.668 605.83 116.4 598.098 116.4V130.4ZM598.098 152.2V166.2C605.83 166.2 612.098 159.932 612.098 152.2H598.098ZM560.298 152.2V138.2C552.566 138.2 546.298 144.468 546.298 152.2H560.298ZM560.298 197V211C568.03 211 574.298 204.732 574.298 197H560.298ZM524.298 197H510.298C510.298 204.732 516.566 211 524.298 211V197ZM524.298 83V97H606.098V83V69H524.298V83ZM606.098 83H592.098V107.8H606.098H620.098V83H606.098ZM606.098 107.8V93.8H560.298V107.8V121.8H606.098V107.8ZM560.298 107.8H546.298V130.4H560.298H574.298V107.8H560.298ZM560.298 130.4V144.4H598.098V130.4V116.4H560.298V130.4ZM598.098 130.4H584.098V152.2H598.098H612.098V130.4H598.098ZM598.098 152.2V138.2H560.298V152.2V166.2H598.098V152.2ZM560.298 152.2H546.298V197H560.298H574.298V152.2H560.298ZM560.298 197V183H524.298V197V211H560.298V197ZM524.298 197H538.298V83H524.298H510.298V197H524.298ZM618.453 83V69C610.721 69 604.453 75.268 604.453 83H618.453ZM654.453 83H668.453C668.453 75.268 662.185 69 654.453 69V83ZM654.453 197V211C662.185 211 668.453 204.732 668.453 197H654.453ZM618.453 197H604.453C604.453 204.732 610.721 211 618.453 211V197ZM618.453 83V97H654.453V83V69H618.453V83ZM654.453 83H640.453V197H654.453H668.453V83H654.453ZM654.453 197V183H618.453V197V211H654.453V197ZM618.453 197H632.453V83H618.453H604.453V197H618.453ZM778.498 197V211C782.834 211 786.925 208.991 789.576 205.561C792.227 202.13 793.139 197.665 792.046 193.469L778.498 197ZM740.698 197L727.073 200.217C728.565 206.536 734.206 211 740.698 211V197ZM733.898 168.2L747.524 164.983C747.51 164.923 747.495 164.864 747.48 164.804L733.898 168.2ZM732.498 162.8L718.77 165.546C718.825 165.82 718.888 166.092 718.959 166.363L732.498 162.8ZM730.498 157L718.493 164.203C718.608 164.393 718.726 164.581 718.85 164.766L730.498 157ZM727.098 154.4L730.782 140.893C729.42 140.522 728.009 140.359 726.599 140.409L727.098 154.4ZM710.698 154.6V140.6C702.966 140.6 696.698 146.868 696.698 154.6H710.698ZM710.698 197V211C718.43 211 724.698 204.732 724.698 197H710.698ZM674.698 197H660.698C660.698 204.732 666.966 211 674.698 211V197ZM674.698 84L673.66 70.0386C666.351 70.5822 660.698 76.6709 660.698 84H674.698ZM750.698 85.4L747.034 98.912C747.105 98.9313 747.177 98.9501 747.249 98.9684L750.698 85.4ZM768.298 96L757.169 104.493C757.252 104.603 757.337 104.711 757.424 104.817L768.298 96ZM768.698 135.6L779.505 144.5C779.547 144.449 779.589 144.397 779.63 144.346L768.698 135.6ZM750.698 143.8L749.128 129.888C742.048 130.688 736.698 136.676 736.698 143.8H750.698ZM750.698 145H736.698C736.698 152.269 742.261 158.328 749.503 158.949L750.698 145ZM762.298 149.6L753.112 160.164C753.274 160.306 753.44 160.443 753.608 160.577L762.298 149.6ZM768.698 159.4L782.246 155.869C782.239 155.844 782.232 155.818 782.226 155.793L768.698 159.4ZM710.698 132H696.698C696.698 139.134 702.062 145.127 709.152 145.914L710.698 132ZM733.698 107.2L725.561 118.592C725.644 118.651 725.727 118.71 725.812 118.767L733.698 107.2ZM710.698 104.6L709.876 90.6242C702.476 91.0594 696.698 97.1873 696.698 104.6H710.698ZM778.498 197V183H740.698V197V211H778.498V197ZM740.698 197L754.324 193.783L747.524 164.983L733.898 168.2L720.273 171.417L727.073 200.217L740.698 197ZM733.898 168.2L747.48 164.804C747.191 163.646 746.704 161.771 746.037 159.237L732.498 162.8L718.959 166.363C719.626 168.895 720.073 170.621 720.316 171.596L733.898 168.2ZM732.498 162.8L746.226 160.054C745.595 156.899 744.503 152.768 742.147 149.234L730.498 157L718.85 164.766C718.593 164.381 718.451 164.095 718.394 163.973C718.334 163.846 718.329 163.816 718.363 163.914C718.396 164.009 718.453 164.189 718.527 164.471C718.6 164.752 718.682 165.107 718.77 165.546L732.498 162.8ZM730.498 157L742.503 149.797C739.893 145.447 735.819 142.267 730.782 140.893L727.098 154.4L723.415 167.907C722.518 167.662 721.507 167.208 720.544 166.471C719.586 165.738 718.92 164.915 718.493 164.203L730.498 157ZM727.098 154.4L726.599 140.409C723.121 140.533 717.854 140.6 710.698 140.6V154.6V168.6C717.943 168.6 723.609 168.534 727.598 168.391L727.098 154.4ZM710.698 154.6H696.698V197H710.698H724.698V154.6H710.698ZM710.698 197V183H674.698V197V211H710.698V197ZM674.698 197H688.698V84H674.698H660.698V197H674.698ZM674.698 84L675.737 97.9614C691.576 96.7833 706.293 96.2 719.898 96.2V82.2V68.2C705.503 68.2 690.087 68.8167 673.66 70.0386L674.698 84ZM719.898 82.2V96.2C731.93 96.2 740.83 97.2295 747.034 98.912L750.698 85.4L754.363 71.888C744.833 69.3039 733.2 68.2 719.898 68.2V82.2ZM750.698 85.4L747.249 98.9684C752.906 100.407 755.689 102.554 757.169 104.493L768.298 96L779.428 87.5066C773.175 79.313 764.224 74.3932 754.148 71.8316L750.698 85.4ZM768.298 96L757.424 104.817C758.773 106.482 760.298 109.78 760.298 116.4H774.298H788.298C788.298 105.687 785.823 95.3847 779.173 87.1828L768.298 96ZM774.298 116.4H760.298C760.298 122.495 758.902 125.434 757.766 126.854L768.698 135.6L779.63 144.346C785.961 136.433 788.298 126.572 788.298 116.4H774.298ZM768.698 135.6L757.891 126.7C757.284 127.438 755.295 129.192 749.128 129.888L750.698 143.8L752.269 157.712C762.635 156.541 772.646 152.829 779.505 144.5L768.698 135.6ZM750.698 143.8H736.698V145H750.698H764.698V143.8H750.698ZM750.698 145L749.503 158.949C751.682 159.136 752.613 159.731 753.112 160.164L762.298 149.6L771.485 139.036C765.85 134.136 759.048 131.664 751.894 131.051L750.698 145ZM762.298 149.6L753.608 160.577C754.408 161.21 754.869 161.876 755.171 163.007L768.698 159.4L782.226 155.793C780.394 148.924 776.588 143.057 770.988 138.623L762.298 149.6ZM768.698 159.4L755.151 162.931L764.951 200.531L778.498 197L792.046 193.469L782.246 155.869L768.698 159.4ZM710.698 132L709.152 145.914C711.243 146.147 714.336 146.2 717.698 146.2V132.2V118.2C716.041 118.2 714.735 118.184 713.748 118.156C713.257 118.142 712.88 118.126 712.602 118.11C712.308 118.093 712.207 118.082 712.244 118.086L710.698 132ZM717.698 132.2V146.2C723.111 146.2 727.938 145.978 731.9 145.406C733.875 145.121 736.008 144.697 738.06 144.008C739.881 143.395 742.943 142.154 745.598 139.499L735.698 129.6L725.799 119.701C726.773 118.726 727.677 118.172 728.18 117.899C728.701 117.617 729.059 117.494 729.137 117.467C729.255 117.428 728.922 117.546 727.897 117.694C725.858 117.988 722.553 118.2 717.698 118.2V132.2ZM735.698 129.6L745.598 139.499C749.21 135.887 750.568 131.422 751.187 128.533C751.873 125.335 752.098 121.854 752.098 118.4H738.098H724.098C724.098 119.559 724.058 120.496 723.997 121.237C723.934 121.988 723.857 122.445 723.809 122.667C723.757 122.908 723.774 122.715 723.981 122.255C724.184 121.805 724.706 120.794 725.799 119.701L735.698 129.6ZM738.098 118.4H752.098C752.098 110.91 750.084 101.428 741.585 95.6328L733.698 107.2L725.812 118.767C725.295 118.415 724.855 117.989 724.517 117.548C724.187 117.119 724.028 116.773 723.968 116.619C723.911 116.476 723.949 116.521 723.998 116.829C724.047 117.138 724.098 117.648 724.098 118.4H738.098ZM733.698 107.2L741.836 95.8077C735.328 91.1595 726.912 90.2 719.698 90.2V104.2V118.2C722.313 118.2 724.075 118.406 725.165 118.639C726.302 118.883 726.199 119.048 725.561 118.592L733.698 107.2ZM719.698 104.2V90.2C717.748 90.2 714.331 90.3621 709.876 90.6242L710.698 104.6L711.52 118.576C716.132 118.305 718.715 118.2 719.698 118.2V104.2ZM710.698 104.6H696.698V132H710.698H724.698V104.6H710.698ZM791.964 54.5V40.5C784.232 40.5 777.964 46.768 777.964 54.5H791.964ZM895.714 54.5H909.714C909.714 46.768 903.446 40.5 895.714 40.5V54.5ZM895.714 84.5V98.5C903.446 98.5 909.714 92.232 909.714 84.5H895.714ZM836.964 84.5V70.5C829.232 70.5 822.964 76.768 822.964 84.5H836.964ZM836.964 110.5H822.964C822.964 118.232 829.232 124.5 836.964 124.5V110.5ZM886.464 110.5H900.464C900.464 102.768 894.196 96.5 886.464 96.5V110.5ZM886.464 137.5V151.5C894.196 151.5 900.464 145.232 900.464 137.5H886.464ZM836.964 137.5V123.5C829.232 123.5 822.964 129.768 822.964 137.5H836.964ZM836.964 166.5H822.964C822.964 174.232 829.232 180.5 836.964 180.5V166.5ZM895.464 166.5H909.464C909.464 158.768 903.196 152.5 895.464 152.5V166.5ZM895.464 197V211C903.196 211 909.464 204.732 909.464 197H895.464ZM791.964 197H777.964C777.964 204.732 784.232 211 791.964 211V197ZM791.964 54.5V68.5H895.714V54.5V40.5H791.964V54.5ZM895.714 54.5H881.714V84.5H895.714H909.714V54.5H895.714ZM895.714 84.5V70.5H836.964V84.5V98.5H895.714V84.5ZM836.964 84.5H822.964V110.5H836.964H850.964V84.5H836.964ZM836.964 110.5V124.5H886.464V110.5V96.5H836.964V110.5ZM886.464 110.5H872.464V137.5H886.464H900.464V110.5H886.464ZM886.464 137.5V123.5H836.964V137.5V151.5H886.464V137.5ZM836.964 137.5H822.964V166.5H836.964H850.964V137.5H836.964ZM836.964 166.5V180.5H895.464V166.5V152.5H836.964V166.5ZM895.464 166.5H881.464V197H895.464H909.464V166.5H895.464ZM895.464 197V183H791.964V197V211H895.464V197ZM791.964 197H805.964V54.5H791.964H777.964V197H791.964Z" fill="url(#paint3_linear_0_1)" mask="url(#path-3-outside-2_0_1)"/>
</g>
<mask id="path-5-outside-3_0_1" maskUnits="userSpaceOnUse" x="70" y="44" width="834" height="164" fill="black">
<rect fill="white" x="70" y="44" width="834" height="164"/>
<path d="M207.704 118V189.25C196.537 192.917 185.954 195.583 175.954 197.25C165.954 198.917 157.537 199.75 150.704 199.75C128.037 199.75 110.287 193.833 97.4541 182C84.6208 170.167 78.2041 152 78.2041 127.5C78.2041 102.5 84.9541 83.8333 98.4541 71.5C111.954 59 130.954 52.75 155.454 52.75C168.287 52.75 183.704 54.6667 201.704 58.5C201.704 61.8333 201.371 66.8333 200.704 73.5C200.037 80 199.371 84.5833 198.704 87.25L189.704 87C178.704 86.6667 170.121 86.5 163.954 86.5C145.454 86.5 135.371 87.5833 133.704 89.75C131.037 92.9167 129.121 97.8333 127.954 104.5C126.954 111.167 126.454 117.583 126.454 123.75C126.454 134.917 127.704 143.583 130.204 149.75C132.704 155.917 136.537 160.25 141.704 162.75C146.871 165.25 153.871 166.5 162.704 166.5H163.704V118H207.704ZM330.256 197H292.456L285.656 168.2C285.389 167.133 284.923 165.333 284.256 162.8C283.723 160.133 283.056 158.2 282.256 157C281.456 155.667 280.323 154.8 278.856 154.4C275.123 154.533 269.656 154.6 262.456 154.6V197H226.456V84C242.589 82.8 257.656 82.2 271.656 82.2C284.323 82.2 294.589 83.2667 302.456 85.4C310.323 87.4 316.189 90.9333 320.056 96C324.056 100.933 326.056 107.733 326.056 116.4C326.056 124.533 324.189 130.933 320.456 135.6C316.723 140.133 310.723 142.867 302.456 143.8V145C307.123 145.4 310.989 146.933 314.056 149.6C317.256 152.133 319.389 155.4 320.456 159.4L330.256 197ZM262.456 132C263.656 132.133 265.989 132.2 269.456 132.2C279.723 132.2 285.723 131.333 287.456 129.6C289.056 128 289.856 124.267 289.856 118.4C289.856 112.933 288.389 109.2 285.456 107.2C282.656 105.2 277.989 104.2 271.456 104.2C269.989 104.2 266.989 104.333 262.456 104.6V132ZM342.672 83H378.672V197H342.672V83ZM438.917 83C454.517 83 467.25 84.4667 477.117 87.4C487.117 90.3333 494.85 95.8667 500.317 104C505.917 112.133 508.717 123.8 508.717 139C508.717 155.267 505.784 167.667 499.917 176.2C494.05 184.6 486.184 190.2 476.317 193C466.45 195.667 453.984 197 438.917 197H398.917V83H438.917ZM465.717 169.8C467.317 168.2 468.45 164.067 469.117 157.4C469.784 150.733 470.117 144.6 470.117 139C470.117 131.933 469.584 126.333 468.517 122.2C467.584 117.933 465.85 114.533 463.317 112C459.317 107.6 452.45 105.4 442.717 105.4C440.984 105.4 438.384 105.533 434.917 105.8V172.2C437.184 172.467 440.717 172.6 445.517 172.6C450.45 172.6 454.784 172.4 458.517 172C462.384 171.467 464.784 170.733 465.717 169.8ZM524.298 83H606.098V107.8H560.298V130.4H598.098V152.2H560.298V197H524.298V83ZM618.453 83H654.453V197H618.453V83ZM778.498 197H740.698L733.898 168.2C733.632 167.133 733.165 165.333 732.498 162.8C731.965 160.133 731.298 158.2 730.498 157C729.698 155.667 728.565 154.8 727.098 154.4C723.365 154.533 717.898 154.6 710.698 154.6V197H674.698V84C690.832 82.8 705.898 82.2 719.898 82.2C732.565 82.2 742.832 83.2667 750.698 85.4C758.565 87.4 764.432 90.9333 768.298 96C772.298 100.933 774.298 107.733 774.298 116.4C774.298 124.533 772.432 130.933 768.698 135.6C764.965 140.133 758.965 142.867 750.698 143.8V145C755.365 145.4 759.232 146.933 762.298 149.6C765.498 152.133 767.632 155.4 768.698 159.4L778.498 197ZM710.698 132C711.898 132.133 714.232 132.2 717.698 132.2C727.965 132.2 733.965 131.333 735.698 129.6C737.298 128 738.098 124.267 738.098 118.4C738.098 112.933 736.632 109.2 733.698 107.2C730.898 105.2 726.232 104.2 719.698 104.2C718.232 104.2 715.232 104.333 710.698 104.6V132ZM791.964 54.5H895.714V84.5H836.964V110.5H886.464V137.5H836.964V166.5H895.464V197H791.964V54.5Z"/>
</mask>
<path d="M207.704 118V189.25C196.537 192.917 185.954 195.583 175.954 197.25C165.954 198.917 157.537 199.75 150.704 199.75C128.037 199.75 110.287 193.833 97.4541 182C84.6208 170.167 78.2041 152 78.2041 127.5C78.2041 102.5 84.9541 83.8333 98.4541 71.5C111.954 59 130.954 52.75 155.454 52.75C168.287 52.75 183.704 54.6667 201.704 58.5C201.704 61.8333 201.371 66.8333 200.704 73.5C200.037 80 199.371 84.5833 198.704 87.25L189.704 87C178.704 86.6667 170.121 86.5 163.954 86.5C145.454 86.5 135.371 87.5833 133.704 89.75C131.037 92.9167 129.121 97.8333 127.954 104.5C126.954 111.167 126.454 117.583 126.454 123.75C126.454 134.917 127.704 143.583 130.204 149.75C132.704 155.917 136.537 160.25 141.704 162.75C146.871 165.25 153.871 166.5 162.704 166.5H163.704V118H207.704ZM330.256 197H292.456L285.656 168.2C285.389 167.133 284.923 165.333 284.256 162.8C283.723 160.133 283.056 158.2 282.256 157C281.456 155.667 280.323 154.8 278.856 154.4C275.123 154.533 269.656 154.6 262.456 154.6V197H226.456V84C242.589 82.8 257.656 82.2 271.656 82.2C284.323 82.2 294.589 83.2667 302.456 85.4C310.323 87.4 316.189 90.9333 320.056 96C324.056 100.933 326.056 107.733 326.056 116.4C326.056 124.533 324.189 130.933 320.456 135.6C316.723 140.133 310.723 142.867 302.456 143.8V145C307.123 145.4 310.989 146.933 314.056 149.6C317.256 152.133 319.389 155.4 320.456 159.4L330.256 197ZM262.456 132C263.656 132.133 265.989 132.2 269.456 132.2C279.723 132.2 285.723 131.333 287.456 129.6C289.056 128 289.856 124.267 289.856 118.4C289.856 112.933 288.389 109.2 285.456 107.2C282.656 105.2 277.989 104.2 271.456 104.2C269.989 104.2 266.989 104.333 262.456 104.6V132ZM342.672 83H378.672V197H342.672V83ZM438.917 83C454.517 83 467.25 84.4667 477.117 87.4C487.117 90.3333 494.85 95.8667 500.317 104C505.917 112.133 508.717 123.8 508.717 139C508.717 155.267 505.784 167.667 499.917 176.2C494.05 184.6 486.184 190.2 476.317 193C466.45 195.667 453.984 197 438.917 197H398.917V83H438.917ZM465.717 169.8C467.317 168.2 468.45 164.067 469.117 157.4C469.784 150.733 470.117 144.6 470.117 139C470.117 131.933 469.584 126.333 468.517 122.2C467.584 117.933 465.85 114.533 463.317 112C459.317 107.6 452.45 105.4 442.717 105.4C440.984 105.4 438.384 105.533 434.917 105.8V172.2C437.184 172.467 440.717 172.6 445.517 172.6C450.45 172.6 454.784 172.4 458.517 172C462.384 171.467 464.784 170.733 465.717 169.8ZM524.298 83H606.098V107.8H560.298V130.4H598.098V152.2H560.298V197H524.298V83ZM618.453 83H654.453V197H618.453V83ZM778.498 197H740.698L733.898 168.2C733.632 167.133 733.165 165.333 732.498 162.8C731.965 160.133 731.298 158.2 730.498 157C729.698 155.667 728.565 154.8 727.098 154.4C723.365 154.533 717.898 154.6 710.698 154.6V197H674.698V84C690.832 82.8 705.898 82.2 719.898 82.2C732.565 82.2 742.832 83.2667 750.698 85.4C758.565 87.4 764.432 90.9333 768.298 96C772.298 100.933 774.298 107.733 774.298 116.4C774.298 124.533 772.432 130.933 768.698 135.6C764.965 140.133 758.965 142.867 750.698 143.8V145C755.365 145.4 759.232 146.933 762.298 149.6C765.498 152.133 767.632 155.4 768.698 159.4L778.498 197ZM710.698 132C711.898 132.133 714.232 132.2 717.698 132.2C727.965 132.2 733.965 131.333 735.698 129.6C737.298 128 738.098 124.267 738.098 118.4C738.098 112.933 736.632 109.2 733.698 107.2C730.898 105.2 726.232 104.2 719.698 104.2C718.232 104.2 715.232 104.333 710.698 104.6V132ZM791.964 54.5H895.714V84.5H836.964V110.5H886.464V137.5H836.964V166.5H895.464V197H791.964V54.5Z" fill="url(#paint4_linear_0_1)"/>
<path d="M207.704 118H215.704C215.704 113.582 212.122 110 207.704 110V118ZM207.704 189.25L210.2 196.851C213.484 195.772 215.704 192.707 215.704 189.25H207.704ZM175.954 197.25L174.639 189.359L175.954 197.25ZM97.4541 182L92.031 187.881L92.031 187.881L97.4541 182ZM98.4541 71.5L103.85 77.4063C103.863 77.3943 103.876 77.3822 103.889 77.3701L98.4541 71.5ZM201.704 58.5H209.704C209.704 54.7239 207.064 51.462 203.37 50.6755L201.704 58.5ZM200.704 73.5L208.662 74.3162C208.663 74.3095 208.664 74.3028 208.664 74.296L200.704 73.5ZM198.704 87.25L198.482 95.2469C202.234 95.3512 205.555 92.8322 206.465 89.1903L198.704 87.25ZM189.704 87L189.462 94.9963C189.469 94.9965 189.475 94.9967 189.482 94.9969L189.704 87ZM133.704 89.75L139.823 94.9031C139.899 94.8129 139.973 94.7211 140.045 94.6277L133.704 89.75ZM127.954 104.5L120.074 103.121C120.063 103.185 120.052 103.249 120.043 103.313L127.954 104.5ZM130.204 149.75L122.79 152.756L122.79 152.756L130.204 149.75ZM141.704 162.75L138.22 169.951L138.22 169.951L141.704 162.75ZM163.704 166.5V174.5C168.122 174.5 171.704 170.918 171.704 166.5H163.704ZM163.704 118V110C159.286 110 155.704 113.582 155.704 118H163.704ZM207.704 118H199.704V189.25H207.704H215.704V118H207.704ZM207.704 189.25L205.208 181.649C194.368 185.209 184.181 187.768 174.639 189.359L175.954 197.25L177.269 205.141C187.727 203.398 198.707 200.625 210.2 196.851L207.704 189.25ZM175.954 197.25L174.639 189.359C164.887 190.984 156.941 191.75 150.704 191.75V199.75V207.75C158.134 207.75 167.021 206.849 177.269 205.141L175.954 197.25ZM150.704 199.75V191.75C129.429 191.75 113.834 186.222 102.877 176.119L97.4541 182L92.031 187.881C106.741 201.445 126.646 207.75 150.704 207.75V199.75ZM97.4541 182L102.877 176.119C92.2618 166.33 86.2041 150.692 86.2041 127.5H78.2041H70.2041C70.2041 153.308 76.9797 174.003 92.031 187.881L97.4541 182ZM78.2041 127.5H86.2041C86.2041 103.89 92.5508 87.729 103.85 77.4063L98.4541 71.5L93.0582 65.5937C77.3574 79.9376 70.2041 101.11 70.2041 127.5H78.2041ZM98.4541 71.5L103.889 77.3701C115.476 66.6417 132.287 60.75 155.454 60.75V52.75V44.75C129.622 44.75 108.432 51.3583 93.0188 65.6299L98.4541 71.5ZM155.454 52.75V60.75C167.544 60.75 182.371 62.5622 200.038 66.3245L201.704 58.5L203.37 50.6755C185.037 46.7712 169.031 44.75 155.454 44.75V52.75ZM201.704 58.5H193.704C193.704 61.4188 193.405 66.0942 192.744 72.704L200.704 73.5L208.664 74.296C209.337 67.5725 209.704 62.2479 209.704 58.5H201.704ZM200.704 73.5L192.746 72.6838C192.08 79.1781 191.457 83.2533 190.943 85.3097L198.704 87.25L206.465 89.1903C207.284 85.9134 207.995 80.8219 208.662 74.3162L200.704 73.5ZM198.704 87.25L198.926 79.2531L189.926 79.0031L189.704 87L189.482 94.9969L198.482 95.2469L198.704 87.25ZM189.704 87L189.946 79.0037C178.918 78.6695 170.241 78.5 163.954 78.5V86.5V94.5C170.001 94.5 178.491 94.6639 189.462 94.9963L189.704 87ZM163.954 86.5V78.5C154.61 78.5 147.129 78.7709 141.662 79.3583C138.952 79.6494 136.471 80.0448 134.4 80.6176C133.362 80.9045 132.224 81.2906 131.13 81.8408C130.112 82.3527 128.596 83.2699 127.363 84.8723L133.704 89.75L140.045 94.6277C139.229 95.6884 138.393 96.0978 138.317 96.1358C138.166 96.212 138.233 96.158 138.665 96.0386C139.531 95.7989 141.039 95.5173 143.371 95.2667C147.987 94.7708 154.798 94.5 163.954 94.5V86.5ZM133.704 89.75L127.585 84.5969C123.603 89.3259 121.346 95.8531 120.074 103.121L127.954 104.5L135.834 105.879C136.896 99.8136 138.472 96.5075 139.823 94.9031L133.704 89.75ZM127.954 104.5L120.043 103.313C118.989 110.337 118.454 117.151 118.454 123.75H126.454H134.454C134.454 118.015 134.919 111.996 135.866 105.687L127.954 104.5ZM126.454 123.75H118.454C118.454 135.343 119.727 145.2 122.79 152.756L130.204 149.75L137.618 146.744C135.681 141.966 134.454 134.49 134.454 123.75H126.454ZM130.204 149.75L122.79 152.756C125.909 160.448 130.987 166.452 138.22 169.951L141.704 162.75L145.189 155.549C142.088 154.048 139.5 151.386 137.618 146.744L130.204 149.75ZM141.704 162.75L138.22 169.951C144.901 173.184 153.252 174.5 162.704 174.5V166.5V158.5C154.489 158.5 148.841 157.316 145.189 155.549L141.704 162.75ZM162.704 166.5V174.5H163.704V166.5V158.5H162.704V166.5ZM163.704 166.5H171.704V118H163.704H155.704V166.5H163.704ZM163.704 118V126H207.704V118V110H163.704V118ZM330.256 197V205C332.734 205 335.071 203.852 336.586 201.892C338.101 199.931 338.622 197.38 337.997 194.982L330.256 197ZM292.456 197L284.67 198.838C285.523 202.449 288.746 205 292.456 205V197ZM285.656 168.2L293.442 166.362C293.434 166.328 293.426 166.294 293.417 166.26L285.656 168.2ZM284.256 162.8L276.411 164.369C276.443 164.526 276.479 164.681 276.519 164.836L284.256 162.8ZM282.256 157L275.396 161.116C275.461 161.225 275.529 161.332 275.6 161.438L282.256 157ZM278.856 154.4L280.961 146.682C280.183 146.47 279.377 146.376 278.571 146.405L278.856 154.4ZM262.456 154.6V146.6C258.038 146.6 254.456 150.182 254.456 154.6H262.456ZM262.456 197V205C266.874 205 270.456 201.418 270.456 197H262.456ZM226.456 197H218.456C218.456 201.418 222.038 205 226.456 205V197ZM226.456 84L225.863 76.022C221.686 76.3327 218.456 79.8119 218.456 84H226.456ZM302.456 85.4L300.362 93.1211C300.403 93.1322 300.444 93.1429 300.485 93.1533L302.456 85.4ZM320.056 96L313.696 100.853C313.744 100.916 313.793 100.977 313.842 101.038L320.056 96ZM320.456 135.6L326.632 140.686C326.656 140.656 326.679 140.627 326.703 140.598L320.456 135.6ZM302.456 143.8L301.559 135.851C297.513 136.307 294.456 139.729 294.456 143.8H302.456ZM302.456 145H294.456C294.456 149.153 297.635 152.616 301.773 152.971L302.456 145ZM314.056 149.6L308.807 155.637C308.899 155.718 308.994 155.796 309.09 155.872L314.056 149.6ZM320.456 159.4L328.197 157.382C328.194 157.368 328.19 157.353 328.186 157.339L320.456 159.4ZM262.456 132H254.456C254.456 136.076 257.521 139.501 261.573 139.951L262.456 132ZM285.456 107.2L280.806 113.71C280.854 113.744 280.901 113.777 280.949 113.81L285.456 107.2ZM262.456 104.6L261.986 96.6138C257.758 96.8625 254.456 100.364 254.456 104.6H262.456ZM330.256 197V189H292.456V197V205H330.256V197ZM292.456 197L300.242 195.162L293.442 166.362L285.656 168.2L277.87 170.038L284.67 198.838L292.456 197ZM285.656 168.2L293.417 166.26C293.137 165.14 292.659 163.298 291.993 160.764L284.256 162.8L276.519 164.836C277.186 167.369 277.641 169.126 277.895 170.14L285.656 168.2ZM284.256 162.8L292.101 161.231C291.511 158.285 290.602 155.096 288.912 152.562L282.256 157L275.6 161.438C275.499 161.287 275.598 161.392 275.793 161.958C275.978 162.495 276.194 163.281 276.411 164.369L284.256 162.8ZM282.256 157L289.116 152.884C287.282 149.827 284.468 147.638 280.961 146.682L278.856 154.4L276.751 162.118C276.553 162.064 276.254 161.94 275.946 161.705C275.642 161.472 275.469 161.237 275.396 161.116L282.256 157ZM278.856 154.4L278.571 146.405C274.983 146.533 269.631 146.6 262.456 146.6V154.6V162.6C269.681 162.6 275.262 162.533 279.142 162.395L278.856 154.4ZM262.456 154.6H254.456V197H262.456H270.456V154.6H262.456ZM262.456 197V189H226.456V197V205H262.456V197ZM226.456 197H234.456V84H226.456H218.456V197H226.456ZM226.456 84L227.049 91.978C243.015 90.7905 257.882 90.2 271.656 90.2V82.2V74.2C257.43 74.2 242.164 74.8095 225.863 76.022L226.456 84ZM271.656 82.2V90.2C283.96 90.2 293.446 91.2454 300.362 93.1211L302.456 85.4L304.55 77.6789C295.733 75.2879 284.685 74.2 271.656 74.2V82.2ZM302.456 85.4L300.485 93.1533C307.089 94.8324 311.193 97.5735 313.696 100.853L320.056 96L326.416 91.1466C321.185 84.2932 313.556 79.9676 304.427 77.6466L302.456 85.4ZM320.056 96L313.842 101.038C316.328 104.104 318.056 108.903 318.056 116.4H326.056H334.056C334.056 106.564 331.785 97.7627 326.27 90.9616L320.056 96ZM326.056 116.4H318.056C318.056 123.368 316.458 127.791 314.209 130.602L320.456 135.6L326.703 140.598C331.92 134.076 334.056 125.698 334.056 116.4H326.056ZM320.456 135.6L314.281 130.514C312.334 132.879 308.626 135.053 301.559 135.851L302.456 143.8L303.354 151.749C312.82 150.681 321.112 147.388 326.632 140.686L320.456 135.6ZM302.456 143.8H294.456V145H302.456H310.456V143.8H302.456ZM302.456 145L301.773 152.971C305.018 153.249 307.207 154.246 308.807 155.637L314.056 149.6L319.305 143.563C314.771 139.62 309.227 137.551 303.139 137.029L302.456 145ZM314.056 149.6L309.09 155.872C310.919 157.32 312.097 159.1 312.726 161.461L320.456 159.4L328.186 157.339C326.682 151.7 323.593 146.947 319.022 143.328L314.056 149.6ZM320.456 159.4L312.715 161.418L322.515 199.018L330.256 197L337.997 194.982L328.197 157.382L320.456 159.4ZM262.456 132L261.573 139.951C263.281 140.141 266.049 140.2 269.456 140.2V132.2V124.2C265.93 124.2 264.031 124.126 263.34 124.049L262.456 132ZM269.456 132.2V140.2C274.749 140.2 279.25 139.981 282.8 139.468C284.571 139.212 286.319 138.854 287.905 138.32C289.361 137.831 291.41 136.96 293.113 135.257L287.456 129.6L281.799 123.943C282.635 123.107 283.285 122.994 282.807 123.155C282.46 123.271 281.741 123.455 280.512 123.632C278.062 123.986 274.43 124.2 269.456 124.2V132.2ZM287.456 129.6L293.113 135.257C295.52 132.85 296.553 129.727 297.078 127.276C297.642 124.649 297.856 121.631 297.856 118.4H289.856H281.856C281.856 121.036 281.671 122.818 281.434 123.924C281.378 124.183 281.326 124.377 281.283 124.514C281.262 124.581 281.244 124.632 281.231 124.666C281.225 124.683 281.22 124.696 281.216 124.704C281.213 124.713 281.211 124.717 281.211 124.717C281.211 124.717 281.213 124.713 281.217 124.704C281.221 124.695 281.228 124.682 281.237 124.665C281.256 124.631 281.286 124.578 281.33 124.511C281.418 124.378 281.568 124.175 281.799 123.943L287.456 129.6ZM289.856 118.4H297.856C297.856 111.777 296.077 104.759 289.963 100.59L285.456 107.2L280.949 113.81C280.968 113.823 280.992 113.84 281.035 113.896C281.082 113.957 281.187 114.113 281.31 114.425C281.571 115.089 281.856 116.328 281.856 118.4H289.856ZM285.456 107.2L290.106 100.69C285.187 97.1768 278.378 96.2 271.456 96.2V104.2V112.2C277.601 112.2 280.125 113.223 280.806 113.71L285.456 107.2ZM271.456 104.2V96.2C269.713 96.2 266.475 96.3498 261.986 96.6138L262.456 104.6L262.926 112.586C267.504 112.317 270.265 112.2 271.456 112.2V104.2ZM262.456 104.6H254.456V132H262.456H270.456V104.6H262.456ZM342.672 83V75C338.253 75 334.672 78.5817 334.672 83H342.672ZM378.672 83H386.672C386.672 78.5817 383.09 75 378.672 75V83ZM378.672 197V205C383.09 205 386.672 201.418 386.672 197H378.672ZM342.672 197H334.672C334.672 201.418 338.253 205 342.672 205V197ZM342.672 83V91H378.672V83V75H342.672V83ZM378.672 83H370.672V197H378.672H386.672V83H378.672ZM378.672 197V189H342.672V197V205H378.672V197ZM342.672 197H350.672V83H342.672H334.672V197H342.672ZM477.117 87.4L474.837 95.0683C474.847 95.0711 474.856 95.0738 474.865 95.0765L477.117 87.4ZM500.317 104L493.677 108.463C493.694 108.487 493.711 108.512 493.728 108.537L500.317 104ZM499.917 176.2L506.476 180.781C506.487 180.765 506.498 180.748 506.509 180.732L499.917 176.2ZM476.317 193L478.404 200.723C478.437 200.714 478.469 200.705 478.501 200.696L476.317 193ZM398.917 197H390.917C390.917 201.418 394.499 205 398.917 205V197ZM398.917 83V75C394.499 75 390.917 78.5817 390.917 83H398.917ZM465.717 169.8L460.06 164.143L460.06 164.143L465.717 169.8ZM469.117 157.4L461.157 156.604L461.157 156.604L469.117 157.4ZM468.517 122.2L460.702 123.91C460.723 124.006 460.746 124.103 460.771 124.199L468.517 122.2ZM463.317 112L457.397 117.381C457.483 117.475 457.57 117.567 457.66 117.657L463.317 112ZM434.917 105.8L434.303 97.8236C430.135 98.1442 426.917 101.62 426.917 105.8H434.917ZM434.917 172.2H426.917C426.917 176.257 429.953 179.671 433.982 180.145L434.917 172.2ZM458.517 172L459.369 179.954C459.45 179.946 459.53 179.936 459.61 179.925L458.517 172ZM438.917 83V91C454.099 91 465.987 92.4371 474.837 95.0683L477.117 87.4L479.397 79.7317C468.514 76.4962 454.935 75 438.917 75V83ZM477.117 87.4L474.865 95.0765C483.195 97.5199 489.322 101.983 493.677 108.463L500.317 104L506.957 99.5373C500.378 89.7501 491.039 83.1467 479.369 79.7234L477.117 87.4ZM500.317 104L493.728 108.537C498.036 114.794 500.717 124.606 500.717 139H508.717H516.717C516.717 122.994 513.798 109.473 506.906 99.4632L500.317 104ZM508.717 139H500.717C500.717 154.502 497.887 165.031 493.325 171.668L499.917 176.2L506.509 180.732C513.68 170.302 516.717 156.031 516.717 139H508.717ZM499.917 176.2L493.358 171.619C488.548 178.506 482.228 183.007 474.133 185.304L476.317 193L478.501 200.696C490.139 197.393 499.552 190.694 506.476 180.781L499.917 176.2ZM476.317 193L474.23 185.277C465.282 187.695 453.579 189 438.917 189V197V205C454.389 205 467.618 203.638 478.404 200.723L476.317 193ZM438.917 197V189H398.917V197V205H438.917V197ZM398.917 197H406.917V83H398.917H390.917V197H398.917ZM398.917 83V91H438.917V83V75H398.917V83ZM465.717 169.8L471.374 175.457C473.694 173.137 474.823 170.02 475.482 167.615C476.214 164.947 476.721 161.757 477.077 158.196L469.117 157.4L461.157 156.604C460.846 159.71 460.453 161.92 460.052 163.385C459.853 164.108 459.69 164.511 459.608 164.682C459.513 164.883 459.614 164.589 460.06 164.143L465.717 169.8ZM469.117 157.4L477.077 158.196C477.765 151.314 478.117 144.911 478.117 139H470.117H462.117C462.117 144.289 461.802 150.152 461.157 156.604L469.117 157.4ZM470.117 139H478.117C478.117 131.637 477.572 125.273 476.263 120.201L468.517 122.2L460.771 124.199C461.595 127.394 462.117 132.229 462.117 139H470.117ZM468.517 122.2L476.332 120.49C475.144 115.058 472.805 110.175 468.974 106.343L463.317 112L457.66 117.657C458.895 118.892 460.023 120.809 460.702 123.91L468.517 122.2ZM463.317 112L469.237 106.619C462.987 99.7444 453.316 97.4 442.717 97.4V105.4V113.4C451.585 113.4 455.647 115.456 457.397 117.381L463.317 112ZM442.717 105.4V97.4C440.665 97.4 437.815 97.5535 434.303 97.8236L434.917 105.8L435.531 113.776C438.953 113.513 441.303 113.4 442.717 113.4V105.4ZM434.917 105.8H426.917V172.2H434.917H442.917V105.8H434.917ZM434.917 172.2L433.982 180.145C436.741 180.47 440.667 180.6 445.517 180.6V172.6V164.6C440.767 164.6 437.626 164.464 435.852 164.255L434.917 172.2ZM445.517 172.6V180.6C450.652 180.6 455.281 180.392 459.369 179.954L458.517 172L457.665 164.046C454.286 164.408 450.248 164.6 445.517 164.6V172.6ZM458.517 172L459.61 179.925C461.761 179.628 463.789 179.24 465.555 178.701C467.07 178.238 469.473 177.357 471.374 175.457L465.717 169.8L460.06 164.143C460.628 163.575 461.102 163.338 461.164 163.307C461.256 163.261 461.189 163.305 460.879 163.399C460.245 163.593 459.14 163.838 457.424 164.075L458.517 172ZM524.298 83V75C519.88 75 516.298 78.5817 516.298 83H524.298ZM606.098 83H614.098C614.098 78.5817 610.517 75 606.098 75V83ZM606.098 107.8V115.8C610.517 115.8 614.098 112.218 614.098 107.8H606.098ZM560.298 107.8V99.8C555.88 99.8 552.298 103.382 552.298 107.8H560.298ZM560.298 130.4H552.298C552.298 134.818 555.88 138.4 560.298 138.4V130.4ZM598.098 130.4H606.098C606.098 125.982 602.517 122.4 598.098 122.4V130.4ZM598.098 152.2V160.2C602.517 160.2 606.098 156.618 606.098 152.2H598.098ZM560.298 152.2V144.2C555.88 144.2 552.298 147.782 552.298 152.2H560.298ZM560.298 197V205C564.717 205 568.298 201.418 568.298 197H560.298ZM524.298 197H516.298C516.298 201.418 519.88 205 524.298 205V197ZM524.298 83V91H606.098V83V75H524.298V83ZM606.098 83H598.098V107.8H606.098H614.098V83H606.098ZM606.098 107.8V99.8H560.298V107.8V115.8H606.098V107.8ZM560.298 107.8H552.298V130.4H560.298H568.298V107.8H560.298ZM560.298 130.4V138.4H598.098V130.4V122.4H560.298V130.4ZM598.098 130.4H590.098V152.2H598.098H606.098V130.4H598.098ZM598.098 152.2V144.2H560.298V152.2V160.2H598.098V152.2ZM560.298 152.2H552.298V197H560.298H568.298V152.2H560.298ZM560.298 197V189H524.298V197V205H560.298V197ZM524.298 197H532.298V83H524.298H516.298V197H524.298ZM618.453 83V75C614.035 75 610.453 78.5817 610.453 83H618.453ZM654.453 83H662.453C662.453 78.5817 658.871 75 654.453 75V83ZM654.453 197V205C658.871 205 662.453 201.418 662.453 197H654.453ZM618.453 197H610.453C610.453 201.418 614.035 205 618.453 205V197ZM618.453 83V91H654.453V83V75H618.453V83ZM654.453 83H646.453V197H654.453H662.453V83H654.453ZM654.453 197V189H618.453V197V205H654.453V197ZM618.453 197H626.453V83H618.453H610.453V197H618.453ZM778.498 197V205C780.976 205 783.313 203.852 784.828 201.892C786.343 199.931 786.864 197.38 786.24 194.982L778.498 197ZM740.698 197L732.912 198.838C733.765 202.449 736.988 205 740.698 205V197ZM733.898 168.2L741.684 166.362C741.676 166.328 741.668 166.294 741.659 166.26L733.898 168.2ZM732.498 162.8L724.654 164.369C724.685 164.526 724.721 164.681 724.762 164.836L732.498 162.8ZM730.498 157L723.638 161.116C723.704 161.225 723.771 161.332 723.842 161.438L730.498 157ZM727.098 154.4L729.203 146.682C728.425 146.47 727.619 146.376 726.813 146.405L727.098 154.4ZM710.698 154.6V146.6C706.28 146.6 702.698 150.182 702.698 154.6H710.698ZM710.698 197V205C715.117 205 718.698 201.418 718.698 197H710.698ZM674.698 197H666.698C666.698 201.418 670.28 205 674.698 205V197ZM674.698 84L674.105 76.022C669.928 76.3327 666.698 79.8119 666.698 84H674.698ZM750.698 85.4L748.604 93.1211C748.645 93.1322 748.686 93.1429 748.727 93.1533L750.698 85.4ZM768.298 96L761.939 100.853C761.986 100.916 762.035 100.977 762.084 101.038L768.298 96ZM768.698 135.6L774.874 140.686C774.898 140.656 774.922 140.627 774.945 140.598L768.698 135.6ZM750.698 143.8L749.801 135.851C745.755 136.307 742.698 139.729 742.698 143.8H750.698ZM750.698 145H742.698C742.698 149.153 745.877 152.616 750.015 152.971L750.698 145ZM762.298 149.6L757.049 155.637C757.142 155.718 757.236 155.796 757.333 155.872L762.298 149.6ZM768.698 159.4L776.44 157.382C776.436 157.368 776.432 157.353 776.428 157.339L768.698 159.4ZM710.698 132H702.698C702.698 136.076 705.763 139.501 709.815 139.951L710.698 132ZM733.698 107.2L729.048 113.71C729.096 113.744 729.143 113.777 729.192 113.81L733.698 107.2ZM710.698 104.6L710.228 96.6138C706 96.8625 702.698 100.364 702.698 104.6H710.698ZM778.498 197V189H740.698V197V205H778.498V197ZM740.698 197L748.484 195.162L741.684 166.362L733.898 168.2L726.112 170.038L732.912 198.838L740.698 197ZM733.898 168.2L741.659 166.26C741.38 165.14 740.902 163.298 740.235 160.764L732.498 162.8L724.762 164.836C725.428 167.369 725.884 169.126 726.137 170.14L733.898 168.2ZM732.498 162.8L740.343 161.231C739.754 158.285 738.844 155.096 737.155 152.562L730.498 157L723.842 161.438C723.742 161.287 723.84 161.392 724.035 161.958C724.221 162.495 724.436 163.281 724.654 164.369L732.498 162.8ZM730.498 157L737.358 152.884C735.524 149.827 732.71 147.638 729.203 146.682L727.098 154.4L724.993 162.118C724.795 162.064 724.496 161.94 724.189 161.705C723.884 161.472 723.711 161.237 723.638 161.116L730.498 157ZM727.098 154.4L726.813 146.405C723.225 146.533 717.873 146.6 710.698 146.6V154.6V162.6C717.924 162.6 723.505 162.533 727.384 162.395L727.098 154.4ZM710.698 154.6H702.698V197H710.698H718.698V154.6H710.698ZM710.698 197V189H674.698V197V205H710.698V197ZM674.698 197H682.698V84H674.698H666.698V197H674.698ZM674.698 84L675.292 91.978C691.257 90.7905 706.124 90.2 719.898 90.2V82.2V74.2C705.673 74.2 690.406 74.8095 674.105 76.022L674.698 84ZM719.898 82.2V90.2C732.202 90.2 741.688 91.2454 748.604 93.1211L750.698 85.4L752.792 77.6789C743.975 75.2879 732.928 74.2 719.898 74.2V82.2ZM750.698 85.4L748.727 93.1533C755.331 94.8324 759.436 97.5735 761.939 100.853L768.298 96L774.658 91.1466C769.428 84.2932 761.798 79.9676 752.669 77.6466L750.698 85.4ZM768.298 96L762.084 101.038C764.57 104.104 766.298 108.903 766.298 116.4H774.298H782.298C782.298 106.564 780.027 97.7627 774.512 90.9616L768.298 96ZM774.298 116.4H766.298C766.298 123.368 764.701 127.791 762.451 130.602L768.698 135.6L774.945 140.598C780.163 134.076 782.298 125.698 782.298 116.4H774.298ZM768.698 135.6L762.523 130.514C760.576 132.879 756.868 135.053 749.801 135.851L750.698 143.8L751.596 151.749C761.062 150.681 769.354 147.388 774.874 140.686L768.698 135.6ZM750.698 143.8H742.698V145H750.698H758.698V143.8H750.698ZM750.698 145L750.015 152.971C753.26 153.249 755.45 154.246 757.049 155.637L762.298 149.6L767.548 143.563C763.014 139.62 757.469 137.551 751.381 137.029L750.698 145ZM762.298 149.6L757.333 155.872C759.161 157.32 760.339 159.1 760.968 161.461L768.698 159.4L776.428 157.339C774.924 151.7 771.835 146.947 767.264 143.328L762.298 149.6ZM768.698 159.4L760.957 161.418L770.757 199.018L778.498 197L786.24 194.982L776.44 157.382L768.698 159.4ZM710.698 132L709.815 139.951C711.524 140.141 714.291 140.2 717.698 140.2V132.2V124.2C714.172 124.2 712.273 124.126 711.582 124.049L710.698 132ZM717.698 132.2V140.2C722.991 140.2 727.493 139.981 731.042 139.468C732.813 139.212 734.561 138.854 736.148 138.32C737.603 137.831 739.652 136.96 741.355 135.257L735.698 129.6L730.041 123.943C730.877 123.107 731.527 122.994 731.049 123.155C730.702 123.271 729.983 123.455 728.755 123.632C726.304 123.986 722.672 124.2 717.698 124.2V132.2ZM735.698 129.6L741.355 135.257C743.762 132.85 744.795 129.727 745.321 127.276C745.884 124.649 746.098 121.631 746.098 118.4H738.098H730.098C730.098 121.036 729.913 122.818 729.676 123.924C729.62 124.183 729.568 124.377 729.525 124.514C729.504 124.581 729.486 124.632 729.473 124.666C729.467 124.683 729.462 124.696 729.458 124.704C729.455 124.713 729.453 124.717 729.453 124.717C729.453 124.717 729.455 124.713 729.459 124.704C729.463 124.695 729.47 124.682 729.48 124.665C729.498 124.631 729.528 124.578 729.572 124.511C729.66 124.378 729.81 124.175 730.041 123.943L735.698 129.6ZM738.098 118.4H746.098C746.098 111.777 744.319 104.759 738.205 100.59L733.698 107.2L729.192 113.81C729.211 113.823 729.234 113.84 729.277 113.896C729.324 113.957 729.43 114.113 729.552 114.425C729.813 115.089 730.098 116.328 730.098 118.4H738.098ZM733.698 107.2L738.348 100.69C733.43 97.1768 726.62 96.2 719.698 96.2V104.2V112.2C725.843 112.2 728.367 113.223 729.048 113.71L733.698 107.2ZM719.698 104.2V96.2C717.955 96.2 714.717 96.3498 710.228 96.6138L710.698 104.6L711.168 112.586C715.746 112.317 718.508 112.2 719.698 112.2V104.2ZM710.698 104.6H702.698V132H710.698H718.698V104.6H710.698ZM791.964 54.5V46.5C787.546 46.5 783.964 50.0817 783.964 54.5H791.964ZM895.714 54.5H903.714C903.714 50.0817 900.132 46.5 895.714 46.5V54.5ZM895.714 84.5V92.5C900.132 92.5 903.714 88.9183 903.714 84.5H895.714ZM836.964 84.5V76.5C832.546 76.5 828.964 80.0817 828.964 84.5H836.964ZM836.964 110.5H828.964C828.964 114.918 832.546 118.5 836.964 118.5V110.5ZM886.464 110.5H894.464C894.464 106.082 890.882 102.5 886.464 102.5V110.5ZM886.464 137.5V145.5C890.882 145.5 894.464 141.918 894.464 137.5H886.464ZM836.964 137.5V129.5C832.546 129.5 828.964 133.082 828.964 137.5H836.964ZM836.964 166.5H828.964C828.964 170.918 832.546 174.5 836.964 174.5V166.5ZM895.464 166.5H903.464C903.464 162.082 899.882 158.5 895.464 158.5V166.5ZM895.464 197V205C899.882 205 903.464 201.418 903.464 197H895.464ZM791.964 197H783.964C783.964 201.418 787.546 205 791.964 205V197ZM791.964 54.5V62.5H895.714V54.5V46.5H791.964V54.5ZM895.714 54.5H887.714V84.5H895.714H903.714V54.5H895.714ZM895.714 84.5V76.5H836.964V84.5V92.5H895.714V84.5ZM836.964 84.5H828.964V110.5H836.964H844.964V84.5H836.964ZM836.964 110.5V118.5H886.464V110.5V102.5H836.964V110.5ZM886.464 110.5H878.464V137.5H886.464H894.464V110.5H886.464ZM886.464 137.5V129.5H836.964V137.5V145.5H886.464V137.5ZM836.964 137.5H828.964V166.5H836.964H844.964V137.5H836.964ZM836.964 166.5V174.5H895.464V166.5V158.5H836.964V166.5ZM895.464 166.5H887.464V197H895.464H903.464V166.5H895.464ZM895.464 197V189H791.964V197V205H895.464V197ZM791.964 197H799.964V54.5H791.964H783.964V197H791.964Z" fill="url(#paint5_linear_0_1)" fill-opacity="0.76" style="mix-blend-mode:multiply" mask="url(#path-5-outside-3_0_1)"/>
</g>
<defs>
<filter id="filter0_d_0_1" x="70.2041" y="44.75" width="833.51" height="179" filterUnits="userSpaceOnUse" color-interpolation-filters="sRGB">
<feFlood flood-opacity="0" result="BackgroundImageFix"/>
<feColorMatrix in="SourceAlpha" type="matrix" values="0 0 0 0 0 0 0 0 0 0 0 0 0 0 0 0 0 0 127 0" result="hardAlpha"/>
<feOffset dy="16"/>
<feComposite in2="hardAlpha" operator="out"/>
<feColorMatrix type="matrix" values="0 0 0 0 0.754808 0 0 0 0 0.495705 0 0 0 0 0.449982 0 0 0 1 0"/>
<feBlend mode="normal" in2="BackgroundImageFix" result="effect1_dropShadow_0_1"/>
<feBlend mode="normal" in="SourceGraphic" in2="effect1_dropShadow_0_1" result="shape"/>
</filter>
<filter id="filter1_d_0_1" x="64.2041" y="38.75" width="845.51" height="193" filterUnits="userSpaceOnUse" color-interpolation-filters="sRGB">
<feFlood flood-opacity="0" result="BackgroundImageFix"/>
<feColorMatrix in="SourceAlpha" type="matrix" values="0 0 0 0 0 0 0 0 0 0 0 0 0 0 0 0 0 0 127 0" result="hardAlpha"/>
<feOffset dy="18"/>
<feComposite in2="hardAlpha" operator="out"/>
<feColorMatrix type="matrix" values="0 0 0 0 0.673077 0 0 0 0 0.183478 0 0 0 0 0.0970784 0 0 0 1 0"/>
<feBlend mode="normal" in2="BackgroundImageFix" result="effect1_dropShadow_0_1"/>
<feBlend mode="normal" in="SourceGraphic" in2="effect1_dropShadow_0_1" result="shape"/>
</filter>
<linearGradient id="paint0_linear_0_1" x1="486.5" y1="30" x2="486.5" y2="341" gradientUnits="userSpaceOnUse">
<stop stop-color="#F8BF18"/>
<stop offset="1" stop-color="#DA3A54"/>
</linearGradient>
<linearGradient id="paint1_linear_0_1" x1="486.5" y1="30" x2="486.5" y2="341" gradientUnits="userSpaceOnUse">
<stop stop-color="#F8BF18"/>
<stop offset="1" stop-color="#DA3A54"/>
</linearGradient>
<linearGradient id="paint2_linear_0_1" x1="486.5" y1="30" x2="486.5" y2="341" gradientUnits="userSpaceOnUse">
<stop stop-color="#F8BF18"/>
<stop offset="1" stop-color="#DA3A54"/>
</linearGradient>
<linearGradient id="paint3_linear_0_1" x1="486.5" y1="30" x2="486.5" y2="341" gradientUnits="userSpaceOnUse">
<stop stop-color="#F8BF18"/>
<stop offset="1" stop-color="#DA3A54"/>
</linearGradient>
<linearGradient id="paint4_linear_0_1" x1="486.5" y1="30" x2="486.5" y2="341" gradientUnits="userSpaceOnUse">
<stop stop-color="white"/>
<stop offset="0.163462" stop-color="#F8BF18"/>
<stop offset="0.456731" stop-color="#F1A126"/>
<stop offset="0.836538" stop-color="#DA3A54"/>
</linearGradient>
<linearGradient id="paint5_linear_0_1" x1="486.5" y1="296" x2="486.5" y2="0" gradientUnits="userSpaceOnUse">
<stop/>
<stop offset="0.769231" stop-color="#141414"/>
<stop offset="1" stop-color="#666666"/>
</linearGradient>
<clipPath id="clip0_0_1">
<rect width="973" height="277" fill="white"/>
</clipPath>
</defs>
</svg>
